<mxfile host="Electron" modified="2024-04-14T21:51:52.775Z" agent="Mozilla/5.0 (Windows NT 10.0; Win64; x64) AppleWebKit/537.36 (KHTML, like Gecko) draw.io/24.2.5 Chrome/120.0.6099.109 Electron/28.1.0 Safari/537.36" etag="C__EyfXki15RScwzopNN" version="24.2.5" type="device" pages="6">
  <diagram name="PÃ¡gina-1" id="u2j_cFMqqOr7DNI-cUxg">
    <mxGraphModel dx="1050" dy="669" grid="1" gridSize="10" guides="1" tooltips="1" connect="1" arrows="1" fold="1" page="1" pageScale="1" pageWidth="827" pageHeight="1169" math="0" shadow="0">
      <root>
        <mxCell id="0" />
        <mxCell id="1" parent="0" />
        <mxCell id="adOxFx30NNGbEN9ApwYO-1" value="7" style="whiteSpace=wrap;html=1;aspect=fixed;labelBackgroundColor=none;fillColor=#F45B69;strokeColor=#028090;fontColor=#E4FDE1;" vertex="1" parent="1">
          <mxGeometry x="200" y="80" width="40" height="40" as="geometry" />
        </mxCell>
        <mxCell id="adOxFx30NNGbEN9ApwYO-2" value="1" style="whiteSpace=wrap;html=1;aspect=fixed;labelBackgroundColor=none;fillColor=#F45B69;strokeColor=#028090;fontColor=#E4FDE1;" vertex="1" parent="1">
          <mxGeometry x="240" y="80" width="40" height="40" as="geometry" />
        </mxCell>
        <mxCell id="adOxFx30NNGbEN9ApwYO-3" value="10" style="whiteSpace=wrap;html=1;aspect=fixed;labelBackgroundColor=none;fillColor=#F45B69;strokeColor=#028090;fontColor=#E4FDE1;" vertex="1" parent="1">
          <mxGeometry x="280" y="80" width="40" height="40" as="geometry" />
        </mxCell>
        <mxCell id="adOxFx30NNGbEN9ApwYO-4" value="3" style="whiteSpace=wrap;html=1;aspect=fixed;labelBackgroundColor=none;fillColor=#F45B69;strokeColor=#028090;fontColor=#E4FDE1;" vertex="1" parent="1">
          <mxGeometry x="320" y="80" width="40" height="40" as="geometry" />
        </mxCell>
        <mxCell id="adOxFx30NNGbEN9ApwYO-5" value="4" style="whiteSpace=wrap;html=1;aspect=fixed;labelBackgroundColor=none;fillColor=#F45B69;strokeColor=#028090;fontColor=#E4FDE1;" vertex="1" parent="1">
          <mxGeometry x="360" y="80" width="40" height="40" as="geometry" />
        </mxCell>
        <mxCell id="adOxFx30NNGbEN9ApwYO-6" value="9" style="whiteSpace=wrap;html=1;aspect=fixed;labelBackgroundColor=none;fillColor=#F45B69;strokeColor=#028090;fontColor=#E4FDE1;" vertex="1" parent="1">
          <mxGeometry x="400" y="80" width="40" height="40" as="geometry" />
        </mxCell>
        <mxCell id="adOxFx30NNGbEN9ApwYO-7" value="5" style="whiteSpace=wrap;html=1;aspect=fixed;labelBackgroundColor=none;fillColor=#F45B69;strokeColor=#028090;fontColor=#E4FDE1;" vertex="1" parent="1">
          <mxGeometry x="440" y="80" width="40" height="40" as="geometry" />
        </mxCell>
        <mxCell id="adOxFx30NNGbEN9ApwYO-8" value="1" style="whiteSpace=wrap;html=1;aspect=fixed;labelBackgroundColor=none;fillColor=#F45B69;strokeColor=#028090;fontColor=#E4FDE1;" vertex="1" parent="1">
          <mxGeometry x="200" y="160" width="40" height="40" as="geometry" />
        </mxCell>
        <mxCell id="adOxFx30NNGbEN9ApwYO-9" value="7" style="whiteSpace=wrap;html=1;aspect=fixed;labelBackgroundColor=none;fillColor=#F45B69;strokeColor=#028090;fontColor=#E4FDE1;" vertex="1" parent="1">
          <mxGeometry x="240" y="160" width="40" height="40" as="geometry" />
        </mxCell>
        <mxCell id="adOxFx30NNGbEN9ApwYO-10" value="10" style="whiteSpace=wrap;html=1;aspect=fixed;labelBackgroundColor=none;fillColor=#F45B69;strokeColor=#028090;fontColor=#E4FDE1;" vertex="1" parent="1">
          <mxGeometry x="280" y="160" width="40" height="40" as="geometry" />
        </mxCell>
        <mxCell id="adOxFx30NNGbEN9ApwYO-11" value="3" style="whiteSpace=wrap;html=1;aspect=fixed;labelBackgroundColor=none;fillColor=#F45B69;strokeColor=#028090;fontColor=#E4FDE1;" vertex="1" parent="1">
          <mxGeometry x="320" y="160" width="40" height="40" as="geometry" />
        </mxCell>
        <mxCell id="adOxFx30NNGbEN9ApwYO-12" value="4" style="whiteSpace=wrap;html=1;aspect=fixed;labelBackgroundColor=none;fillColor=#F45B69;strokeColor=#028090;fontColor=#E4FDE1;" vertex="1" parent="1">
          <mxGeometry x="360" y="160" width="40" height="40" as="geometry" />
        </mxCell>
        <mxCell id="adOxFx30NNGbEN9ApwYO-13" value="9" style="whiteSpace=wrap;html=1;aspect=fixed;labelBackgroundColor=none;fillColor=#F45B69;strokeColor=#028090;fontColor=#E4FDE1;" vertex="1" parent="1">
          <mxGeometry x="400" y="160" width="40" height="40" as="geometry" />
        </mxCell>
        <mxCell id="adOxFx30NNGbEN9ApwYO-14" value="5" style="whiteSpace=wrap;html=1;aspect=fixed;labelBackgroundColor=none;fillColor=#F45B69;strokeColor=#028090;fontColor=#E4FDE1;" vertex="1" parent="1">
          <mxGeometry x="440" y="160" width="40" height="40" as="geometry" />
        </mxCell>
        <mxCell id="adOxFx30NNGbEN9ApwYO-15" value="1" style="whiteSpace=wrap;html=1;aspect=fixed;labelBackgroundColor=none;fillColor=#F45B69;strokeColor=#028090;fontColor=#E4FDE1;" vertex="1" parent="1">
          <mxGeometry x="200" y="240" width="40" height="40" as="geometry" />
        </mxCell>
        <mxCell id="adOxFx30NNGbEN9ApwYO-16" value="3" style="whiteSpace=wrap;html=1;aspect=fixed;labelBackgroundColor=none;fillColor=#F45B69;strokeColor=#028090;fontColor=#E4FDE1;" vertex="1" parent="1">
          <mxGeometry x="240" y="240" width="40" height="40" as="geometry" />
        </mxCell>
        <mxCell id="adOxFx30NNGbEN9ApwYO-17" value="10" style="whiteSpace=wrap;html=1;aspect=fixed;labelBackgroundColor=none;fillColor=#F45B69;strokeColor=#028090;fontColor=#E4FDE1;" vertex="1" parent="1">
          <mxGeometry x="280" y="240" width="40" height="40" as="geometry" />
        </mxCell>
        <mxCell id="adOxFx30NNGbEN9ApwYO-18" value="7" style="whiteSpace=wrap;html=1;aspect=fixed;labelBackgroundColor=none;fillColor=#F45B69;strokeColor=#028090;fontColor=#E4FDE1;" vertex="1" parent="1">
          <mxGeometry x="320" y="240" width="40" height="40" as="geometry" />
        </mxCell>
        <mxCell id="adOxFx30NNGbEN9ApwYO-19" value="4" style="whiteSpace=wrap;html=1;aspect=fixed;labelBackgroundColor=none;fillColor=#F45B69;strokeColor=#028090;fontColor=#E4FDE1;" vertex="1" parent="1">
          <mxGeometry x="360" y="240" width="40" height="40" as="geometry" />
        </mxCell>
        <mxCell id="adOxFx30NNGbEN9ApwYO-20" value="9" style="whiteSpace=wrap;html=1;aspect=fixed;labelBackgroundColor=none;fillColor=#F45B69;strokeColor=#028090;fontColor=#E4FDE1;" vertex="1" parent="1">
          <mxGeometry x="400" y="240" width="40" height="40" as="geometry" />
        </mxCell>
        <mxCell id="adOxFx30NNGbEN9ApwYO-21" value="5" style="whiteSpace=wrap;html=1;aspect=fixed;labelBackgroundColor=none;fillColor=#F45B69;strokeColor=#028090;fontColor=#E4FDE1;" vertex="1" parent="1">
          <mxGeometry x="440" y="240" width="40" height="40" as="geometry" />
        </mxCell>
        <mxCell id="adOxFx30NNGbEN9ApwYO-22" value="1" style="whiteSpace=wrap;html=1;aspect=fixed;labelBackgroundColor=none;fillColor=#F45B69;strokeColor=#028090;fontColor=#E4FDE1;" vertex="1" parent="1">
          <mxGeometry x="200" y="320" width="40" height="40" as="geometry" />
        </mxCell>
        <mxCell id="adOxFx30NNGbEN9ApwYO-23" value="3" style="whiteSpace=wrap;html=1;aspect=fixed;labelBackgroundColor=none;fillColor=#F45B69;strokeColor=#028090;fontColor=#E4FDE1;" vertex="1" parent="1">
          <mxGeometry x="240" y="320" width="40" height="40" as="geometry" />
        </mxCell>
        <mxCell id="adOxFx30NNGbEN9ApwYO-24" value="4" style="whiteSpace=wrap;html=1;aspect=fixed;labelBackgroundColor=none;fillColor=#F45B69;strokeColor=#028090;fontColor=#E4FDE1;" vertex="1" parent="1">
          <mxGeometry x="280" y="320" width="40" height="40" as="geometry" />
        </mxCell>
        <mxCell id="adOxFx30NNGbEN9ApwYO-25" value="7" style="whiteSpace=wrap;html=1;aspect=fixed;labelBackgroundColor=none;fillColor=#F45B69;strokeColor=#028090;fontColor=#E4FDE1;" vertex="1" parent="1">
          <mxGeometry x="320" y="320" width="40" height="40" as="geometry" />
        </mxCell>
        <mxCell id="adOxFx30NNGbEN9ApwYO-26" value="10" style="whiteSpace=wrap;html=1;aspect=fixed;labelBackgroundColor=none;fillColor=#F45B69;strokeColor=#028090;fontColor=#E4FDE1;" vertex="1" parent="1">
          <mxGeometry x="360" y="320" width="40" height="40" as="geometry" />
        </mxCell>
        <mxCell id="adOxFx30NNGbEN9ApwYO-27" value="9" style="whiteSpace=wrap;html=1;aspect=fixed;labelBackgroundColor=none;fillColor=#F45B69;strokeColor=#028090;fontColor=#E4FDE1;" vertex="1" parent="1">
          <mxGeometry x="400" y="320" width="40" height="40" as="geometry" />
        </mxCell>
        <mxCell id="adOxFx30NNGbEN9ApwYO-28" value="5" style="whiteSpace=wrap;html=1;aspect=fixed;labelBackgroundColor=none;fillColor=#F45B69;strokeColor=#028090;fontColor=#E4FDE1;" vertex="1" parent="1">
          <mxGeometry x="440" y="320" width="40" height="40" as="geometry" />
        </mxCell>
        <mxCell id="adOxFx30NNGbEN9ApwYO-29" value="1" style="whiteSpace=wrap;html=1;aspect=fixed;labelBackgroundColor=none;fillColor=#F45B69;strokeColor=#028090;fontColor=#E4FDE1;" vertex="1" parent="1">
          <mxGeometry x="200" y="400" width="40" height="40" as="geometry" />
        </mxCell>
        <mxCell id="adOxFx30NNGbEN9ApwYO-30" value="3" style="whiteSpace=wrap;html=1;aspect=fixed;labelBackgroundColor=none;fillColor=#F45B69;strokeColor=#028090;fontColor=#E4FDE1;" vertex="1" parent="1">
          <mxGeometry x="240" y="400" width="40" height="40" as="geometry" />
        </mxCell>
        <mxCell id="adOxFx30NNGbEN9ApwYO-31" value="4" style="whiteSpace=wrap;html=1;aspect=fixed;labelBackgroundColor=none;fillColor=#F45B69;strokeColor=#028090;fontColor=#E4FDE1;" vertex="1" parent="1">
          <mxGeometry x="280" y="400" width="40" height="40" as="geometry" />
        </mxCell>
        <mxCell id="adOxFx30NNGbEN9ApwYO-32" value="5" style="whiteSpace=wrap;html=1;aspect=fixed;labelBackgroundColor=none;fillColor=#F45B69;strokeColor=#028090;fontColor=#E4FDE1;" vertex="1" parent="1">
          <mxGeometry x="320" y="400" width="40" height="40" as="geometry" />
        </mxCell>
        <mxCell id="adOxFx30NNGbEN9ApwYO-33" value="10" style="whiteSpace=wrap;html=1;aspect=fixed;labelBackgroundColor=none;fillColor=#F45B69;strokeColor=#028090;fontColor=#E4FDE1;" vertex="1" parent="1">
          <mxGeometry x="360" y="400" width="40" height="40" as="geometry" />
        </mxCell>
        <mxCell id="adOxFx30NNGbEN9ApwYO-34" value="9" style="whiteSpace=wrap;html=1;aspect=fixed;labelBackgroundColor=none;fillColor=#F45B69;strokeColor=#028090;fontColor=#E4FDE1;" vertex="1" parent="1">
          <mxGeometry x="400" y="400" width="40" height="40" as="geometry" />
        </mxCell>
        <mxCell id="adOxFx30NNGbEN9ApwYO-35" value="7" style="whiteSpace=wrap;html=1;aspect=fixed;labelBackgroundColor=none;fillColor=#F45B69;strokeColor=#028090;fontColor=#E4FDE1;" vertex="1" parent="1">
          <mxGeometry x="440" y="400" width="40" height="40" as="geometry" />
        </mxCell>
        <mxCell id="adOxFx30NNGbEN9ApwYO-36" value="" style="endArrow=none;html=1;rounded=0;strokeColor=#028090;fontColor=#E4FDE1;fillColor=#F45B69;" edge="1" parent="1">
          <mxGeometry width="50" height="50" relative="1" as="geometry">
            <mxPoint x="220" y="150" as="sourcePoint" />
            <mxPoint x="220" y="130" as="targetPoint" />
          </mxGeometry>
        </mxCell>
        <mxCell id="adOxFx30NNGbEN9ApwYO-37" value="" style="endArrow=none;html=1;rounded=0;strokeColor=#028090;fontColor=#E4FDE1;fillColor=#F45B69;" edge="1" parent="1">
          <mxGeometry width="50" height="50" relative="1" as="geometry">
            <mxPoint x="260" y="140" as="sourcePoint" />
            <mxPoint x="220" y="140" as="targetPoint" />
          </mxGeometry>
        </mxCell>
        <mxCell id="adOxFx30NNGbEN9ApwYO-38" value="" style="endArrow=none;html=1;rounded=0;strokeColor=#028090;fontColor=#E4FDE1;fillColor=#F45B69;" edge="1" parent="1">
          <mxGeometry width="50" height="50" relative="1" as="geometry">
            <mxPoint x="259.8" y="150" as="sourcePoint" />
            <mxPoint x="259.8" y="130" as="targetPoint" />
          </mxGeometry>
        </mxCell>
        <mxCell id="adOxFx30NNGbEN9ApwYO-39" value="" style="endArrow=none;html=1;rounded=0;strokeColor=#028090;fontColor=#E4FDE1;fillColor=#F45B69;" edge="1" parent="1">
          <mxGeometry width="50" height="50" relative="1" as="geometry">
            <mxPoint x="260" y="230" as="sourcePoint" />
            <mxPoint x="260" y="210" as="targetPoint" />
          </mxGeometry>
        </mxCell>
        <mxCell id="adOxFx30NNGbEN9ApwYO-40" value="" style="endArrow=none;html=1;rounded=0;strokeColor=#028090;fontColor=#E4FDE1;fillColor=#F45B69;" edge="1" parent="1">
          <mxGeometry width="50" height="50" relative="1" as="geometry">
            <mxPoint x="340" y="220" as="sourcePoint" />
            <mxPoint x="260" y="220" as="targetPoint" />
          </mxGeometry>
        </mxCell>
        <mxCell id="adOxFx30NNGbEN9ApwYO-41" value="" style="endArrow=none;html=1;rounded=0;strokeColor=#028090;fontColor=#E4FDE1;fillColor=#F45B69;" edge="1" parent="1">
          <mxGeometry width="50" height="50" relative="1" as="geometry">
            <mxPoint x="339.8" y="230" as="sourcePoint" />
            <mxPoint x="339.8" y="210" as="targetPoint" />
          </mxGeometry>
        </mxCell>
        <mxCell id="adOxFx30NNGbEN9ApwYO-42" value="" style="endArrow=none;html=1;rounded=0;strokeColor=#028090;fontColor=#E4FDE1;fillColor=#F45B69;" edge="1" parent="1">
          <mxGeometry width="50" height="50" relative="1" as="geometry">
            <mxPoint x="299.9" y="310" as="sourcePoint" />
            <mxPoint x="299.9" y="290" as="targetPoint" />
          </mxGeometry>
        </mxCell>
        <mxCell id="adOxFx30NNGbEN9ApwYO-43" value="" style="endArrow=none;html=1;rounded=0;strokeColor=#028090;fontColor=#E4FDE1;fillColor=#F45B69;" edge="1" parent="1">
          <mxGeometry width="50" height="50" relative="1" as="geometry">
            <mxPoint x="379.9" y="300" as="sourcePoint" />
            <mxPoint x="299.9" y="300" as="targetPoint" />
          </mxGeometry>
        </mxCell>
        <mxCell id="adOxFx30NNGbEN9ApwYO-44" value="" style="endArrow=none;html=1;rounded=0;strokeColor=#028090;fontColor=#E4FDE1;fillColor=#F45B69;" edge="1" parent="1">
          <mxGeometry width="50" height="50" relative="1" as="geometry">
            <mxPoint x="379.7" y="310" as="sourcePoint" />
            <mxPoint x="379.7" y="290" as="targetPoint" />
          </mxGeometry>
        </mxCell>
        <mxCell id="adOxFx30NNGbEN9ApwYO-45" value="" style="endArrow=none;html=1;rounded=0;strokeColor=#028090;fontColor=#E4FDE1;fillColor=#F45B69;" edge="1" parent="1">
          <mxGeometry width="50" height="50" relative="1" as="geometry">
            <mxPoint x="339.9" y="390" as="sourcePoint" />
            <mxPoint x="339.9" y="370" as="targetPoint" />
          </mxGeometry>
        </mxCell>
        <mxCell id="adOxFx30NNGbEN9ApwYO-46" value="" style="endArrow=none;html=1;rounded=0;strokeColor=#028090;fontColor=#E4FDE1;fillColor=#F45B69;" edge="1" parent="1">
          <mxGeometry width="50" height="50" relative="1" as="geometry">
            <mxPoint x="460" y="380" as="sourcePoint" />
            <mxPoint x="339.9" y="380" as="targetPoint" />
          </mxGeometry>
        </mxCell>
        <mxCell id="adOxFx30NNGbEN9ApwYO-47" value="" style="endArrow=none;html=1;rounded=0;strokeColor=#028090;fontColor=#E4FDE1;fillColor=#F45B69;" edge="1" parent="1">
          <mxGeometry width="50" height="50" relative="1" as="geometry">
            <mxPoint x="459.8" y="390" as="sourcePoint" />
            <mxPoint x="459.8" y="370" as="targetPoint" />
          </mxGeometry>
        </mxCell>
        <mxCell id="adOxFx30NNGbEN9ApwYO-56" value="1" style="whiteSpace=wrap;html=1;aspect=fixed;labelBackgroundColor=none;fillColor=#F45B69;strokeColor=#028090;fontColor=#E4FDE1;" vertex="1" parent="1">
          <mxGeometry x="200" y="480" width="40" height="40" as="geometry" />
        </mxCell>
        <mxCell id="adOxFx30NNGbEN9ApwYO-57" value="3" style="whiteSpace=wrap;html=1;aspect=fixed;labelBackgroundColor=none;fillColor=#F45B69;strokeColor=#028090;fontColor=#E4FDE1;" vertex="1" parent="1">
          <mxGeometry x="240" y="480" width="40" height="40" as="geometry" />
        </mxCell>
        <mxCell id="adOxFx30NNGbEN9ApwYO-58" value="4" style="whiteSpace=wrap;html=1;aspect=fixed;labelBackgroundColor=none;fillColor=#F45B69;strokeColor=#028090;fontColor=#E4FDE1;" vertex="1" parent="1">
          <mxGeometry x="280" y="480" width="40" height="40" as="geometry" />
        </mxCell>
        <mxCell id="adOxFx30NNGbEN9ApwYO-59" value="5" style="whiteSpace=wrap;html=1;aspect=fixed;labelBackgroundColor=none;fillColor=#F45B69;strokeColor=#028090;fontColor=#E4FDE1;" vertex="1" parent="1">
          <mxGeometry x="320" y="480" width="40" height="40" as="geometry" />
        </mxCell>
        <mxCell id="adOxFx30NNGbEN9ApwYO-60" value="7" style="whiteSpace=wrap;html=1;aspect=fixed;labelBackgroundColor=none;fillColor=#F45B69;strokeColor=#028090;fontColor=#E4FDE1;" vertex="1" parent="1">
          <mxGeometry x="360" y="480" width="40" height="40" as="geometry" />
        </mxCell>
        <mxCell id="adOxFx30NNGbEN9ApwYO-61" value="9" style="whiteSpace=wrap;html=1;aspect=fixed;labelBackgroundColor=none;fillColor=#F45B69;strokeColor=#028090;fontColor=#E4FDE1;" vertex="1" parent="1">
          <mxGeometry x="400" y="480" width="40" height="40" as="geometry" />
        </mxCell>
        <mxCell id="adOxFx30NNGbEN9ApwYO-62" value="10" style="whiteSpace=wrap;html=1;aspect=fixed;labelBackgroundColor=none;fillColor=#F45B69;strokeColor=#028090;fontColor=#E4FDE1;" vertex="1" parent="1">
          <mxGeometry x="440" y="480" width="40" height="40" as="geometry" />
        </mxCell>
        <mxCell id="adOxFx30NNGbEN9ApwYO-70" value="" style="endArrow=none;html=1;rounded=0;strokeColor=#028090;fontColor=#E4FDE1;fillColor=#F45B69;" edge="1" parent="1">
          <mxGeometry width="50" height="50" relative="1" as="geometry">
            <mxPoint x="380" y="470" as="sourcePoint" />
            <mxPoint x="380" y="450" as="targetPoint" />
          </mxGeometry>
        </mxCell>
        <mxCell id="adOxFx30NNGbEN9ApwYO-71" value="" style="endArrow=none;html=1;rounded=0;strokeColor=#028090;fontColor=#E4FDE1;fillColor=#F45B69;" edge="1" parent="1">
          <mxGeometry width="50" height="50" relative="1" as="geometry">
            <mxPoint x="460" y="460" as="sourcePoint" />
            <mxPoint x="380" y="460" as="targetPoint" />
          </mxGeometry>
        </mxCell>
        <mxCell id="adOxFx30NNGbEN9ApwYO-72" value="" style="endArrow=none;html=1;rounded=0;strokeColor=#028090;fontColor=#E4FDE1;fillColor=#F45B69;" edge="1" parent="1">
          <mxGeometry width="50" height="50" relative="1" as="geometry">
            <mxPoint x="459.8" y="470" as="sourcePoint" />
            <mxPoint x="459.8" y="450" as="targetPoint" />
          </mxGeometry>
        </mxCell>
      </root>
    </mxGraphModel>
  </diagram>
  <diagram id="Fmmh2UoK4LK_ah5ibiLd" name="PÃ¡gina-2">
    <mxGraphModel dx="500" dy="319" grid="1" gridSize="10" guides="1" tooltips="1" connect="1" arrows="1" fold="1" page="1" pageScale="1" pageWidth="827" pageHeight="1169" math="0" shadow="0">
      <root>
        <mxCell id="0" />
        <mxCell id="1" parent="0" />
        <mxCell id="nU4fdef-uDNdENPvDuBF-1" value="5" style="whiteSpace=wrap;html=1;aspect=fixed;strokeColor=#028090;fontColor=#E4FDE1;fillColor=#F45B69;" vertex="1" parent="1">
          <mxGeometry x="160" y="80" width="40" height="40" as="geometry" />
        </mxCell>
        <mxCell id="nU4fdef-uDNdENPvDuBF-2" value="4" style="whiteSpace=wrap;html=1;aspect=fixed;strokeColor=#028090;fontColor=#E4FDE1;fillColor=#F45B69;" vertex="1" parent="1">
          <mxGeometry x="200" y="80" width="40" height="40" as="geometry" />
        </mxCell>
        <mxCell id="nU4fdef-uDNdENPvDuBF-4" value="3" style="whiteSpace=wrap;html=1;aspect=fixed;strokeColor=#028090;fontColor=#E4FDE1;fillColor=#F45B69;" vertex="1" parent="1">
          <mxGeometry x="240" y="80" width="40" height="40" as="geometry" />
        </mxCell>
        <mxCell id="nU4fdef-uDNdENPvDuBF-5" value="2" style="whiteSpace=wrap;html=1;aspect=fixed;strokeColor=#028090;fontColor=#E4FDE1;fillColor=#F45B69;" vertex="1" parent="1">
          <mxGeometry x="280" y="80" width="40" height="40" as="geometry" />
        </mxCell>
        <mxCell id="nU4fdef-uDNdENPvDuBF-6" value="1" style="whiteSpace=wrap;html=1;aspect=fixed;strokeColor=#028090;fontColor=#E4FDE1;fillColor=#F45B69;" vertex="1" parent="1">
          <mxGeometry x="320" y="80" width="40" height="40" as="geometry" />
        </mxCell>
        <mxCell id="gFJ3gVZIiLKvK9GYE7tC-1" value="" style="endArrow=none;html=1;rounded=0;strokeColor=#028090;fontColor=#E4FDE1;fillColor=#F45B69;" edge="1" parent="1">
          <mxGeometry width="50" height="50" relative="1" as="geometry">
            <mxPoint x="180" y="150" as="sourcePoint" />
            <mxPoint x="180" y="130" as="targetPoint" />
          </mxGeometry>
        </mxCell>
        <mxCell id="gFJ3gVZIiLKvK9GYE7tC-2" value="" style="endArrow=none;html=1;rounded=0;strokeColor=#028090;fontColor=#E4FDE1;fillColor=#F45B69;" edge="1" parent="1">
          <mxGeometry width="50" height="50" relative="1" as="geometry">
            <mxPoint x="340" y="140" as="sourcePoint" />
            <mxPoint x="180" y="140" as="targetPoint" />
          </mxGeometry>
        </mxCell>
        <mxCell id="gFJ3gVZIiLKvK9GYE7tC-3" value="" style="endArrow=none;html=1;rounded=0;strokeColor=#028090;fontColor=#E4FDE1;fillColor=#F45B69;" edge="1" parent="1">
          <mxGeometry width="50" height="50" relative="1" as="geometry">
            <mxPoint x="339.76" y="150" as="sourcePoint" />
            <mxPoint x="339.76" y="130" as="targetPoint" />
          </mxGeometry>
        </mxCell>
        <mxCell id="gFJ3gVZIiLKvK9GYE7tC-4" value="1" style="whiteSpace=wrap;html=1;aspect=fixed;strokeColor=#028090;fontColor=#E4FDE1;fillColor=#F45B69;" vertex="1" parent="1">
          <mxGeometry x="160" y="160" width="40" height="40" as="geometry" />
        </mxCell>
        <mxCell id="gFJ3gVZIiLKvK9GYE7tC-5" value="4" style="whiteSpace=wrap;html=1;aspect=fixed;strokeColor=#028090;fontColor=#E4FDE1;fillColor=#F45B69;" vertex="1" parent="1">
          <mxGeometry x="200" y="160" width="40" height="40" as="geometry" />
        </mxCell>
        <mxCell id="gFJ3gVZIiLKvK9GYE7tC-6" value="3" style="whiteSpace=wrap;html=1;aspect=fixed;strokeColor=#028090;fontColor=#E4FDE1;fillColor=#F45B69;" vertex="1" parent="1">
          <mxGeometry x="240" y="160" width="40" height="40" as="geometry" />
        </mxCell>
        <mxCell id="gFJ3gVZIiLKvK9GYE7tC-7" value="2" style="whiteSpace=wrap;html=1;aspect=fixed;strokeColor=#028090;fontColor=#E4FDE1;fillColor=#F45B69;" vertex="1" parent="1">
          <mxGeometry x="280" y="160" width="40" height="40" as="geometry" />
        </mxCell>
        <mxCell id="gFJ3gVZIiLKvK9GYE7tC-8" value="5" style="whiteSpace=wrap;html=1;aspect=fixed;strokeColor=#028090;fontColor=#E4FDE1;fillColor=#F45B69;" vertex="1" parent="1">
          <mxGeometry x="320" y="160" width="40" height="40" as="geometry" />
        </mxCell>
        <mxCell id="gFJ3gVZIiLKvK9GYE7tC-9" value="" style="endArrow=none;html=1;rounded=0;strokeColor=#028090;fontColor=#E4FDE1;fillColor=#F45B69;" edge="1" parent="1">
          <mxGeometry width="50" height="50" relative="1" as="geometry">
            <mxPoint x="220" y="230" as="sourcePoint" />
            <mxPoint x="220" y="210" as="targetPoint" />
          </mxGeometry>
        </mxCell>
        <mxCell id="gFJ3gVZIiLKvK9GYE7tC-10" value="" style="endArrow=none;html=1;rounded=0;strokeColor=#028090;fontColor=#E4FDE1;fillColor=#F45B69;" edge="1" parent="1">
          <mxGeometry width="50" height="50" relative="1" as="geometry">
            <mxPoint x="300" y="220" as="sourcePoint" />
            <mxPoint x="220" y="220" as="targetPoint" />
          </mxGeometry>
        </mxCell>
        <mxCell id="gFJ3gVZIiLKvK9GYE7tC-11" value="" style="endArrow=none;html=1;rounded=0;strokeColor=#028090;fontColor=#E4FDE1;fillColor=#F45B69;" edge="1" parent="1">
          <mxGeometry width="50" height="50" relative="1" as="geometry">
            <mxPoint x="299.76" y="230" as="sourcePoint" />
            <mxPoint x="299.76" y="210" as="targetPoint" />
          </mxGeometry>
        </mxCell>
        <mxCell id="gFJ3gVZIiLKvK9GYE7tC-12" value="1" style="whiteSpace=wrap;html=1;aspect=fixed;strokeColor=#028090;fontColor=#E4FDE1;fillColor=#F45B69;" vertex="1" parent="1">
          <mxGeometry x="160" y="240" width="40" height="40" as="geometry" />
        </mxCell>
        <mxCell id="gFJ3gVZIiLKvK9GYE7tC-13" value="2" style="whiteSpace=wrap;html=1;aspect=fixed;strokeColor=#028090;fontColor=#E4FDE1;fillColor=#F45B69;" vertex="1" parent="1">
          <mxGeometry x="200" y="240" width="40" height="40" as="geometry" />
        </mxCell>
        <mxCell id="gFJ3gVZIiLKvK9GYE7tC-14" value="3" style="whiteSpace=wrap;html=1;aspect=fixed;strokeColor=#028090;fontColor=#E4FDE1;fillColor=#F45B69;" vertex="1" parent="1">
          <mxGeometry x="240" y="240" width="40" height="40" as="geometry" />
        </mxCell>
        <mxCell id="gFJ3gVZIiLKvK9GYE7tC-15" value="4" style="whiteSpace=wrap;html=1;aspect=fixed;strokeColor=#028090;fontColor=#E4FDE1;fillColor=#F45B69;" vertex="1" parent="1">
          <mxGeometry x="280" y="240" width="40" height="40" as="geometry" />
        </mxCell>
        <mxCell id="gFJ3gVZIiLKvK9GYE7tC-16" value="5" style="whiteSpace=wrap;html=1;aspect=fixed;strokeColor=#028090;fontColor=#E4FDE1;fillColor=#F45B69;" vertex="1" parent="1">
          <mxGeometry x="320" y="240" width="40" height="40" as="geometry" />
        </mxCell>
      </root>
    </mxGraphModel>
  </diagram>
  <diagram id="F5eAASVitqp6ggWSrzv0" name="PÃ¡gina-3">
    <mxGraphModel dx="600" dy="382" grid="1" gridSize="10" guides="1" tooltips="1" connect="1" arrows="1" fold="1" page="1" pageScale="1" pageWidth="827" pageHeight="1169" math="0" shadow="0">
      <root>
        <mxCell id="0" />
        <mxCell id="1" parent="0" />
        <mxCell id="diK1pq-tiVSuGxWWCqKm-1" value="1" style="whiteSpace=wrap;html=1;aspect=fixed;strokeColor=#028090;fontColor=#E4FDE1;fillColor=#F45B69;" vertex="1" parent="1">
          <mxGeometry x="320" y="80" width="40" height="40" as="geometry" />
        </mxCell>
        <mxCell id="diK1pq-tiVSuGxWWCqKm-2" value="2" style="whiteSpace=wrap;html=1;aspect=fixed;strokeColor=#028090;fontColor=#E4FDE1;fillColor=#F45B69;" vertex="1" parent="1">
          <mxGeometry x="360" y="80" width="40" height="40" as="geometry" />
        </mxCell>
        <mxCell id="diK1pq-tiVSuGxWWCqKm-3" value="3" style="whiteSpace=wrap;html=1;aspect=fixed;strokeColor=#028090;fontColor=#E4FDE1;fillColor=#F45B69;" vertex="1" parent="1">
          <mxGeometry x="400" y="80" width="40" height="40" as="geometry" />
        </mxCell>
        <mxCell id="diK1pq-tiVSuGxWWCqKm-4" value="4" style="whiteSpace=wrap;html=1;aspect=fixed;strokeColor=#028090;fontColor=#E4FDE1;fillColor=#F45B69;" vertex="1" parent="1">
          <mxGeometry x="440" y="80" width="40" height="40" as="geometry" />
        </mxCell>
        <mxCell id="diK1pq-tiVSuGxWWCqKm-5" value="5" style="whiteSpace=wrap;html=1;aspect=fixed;strokeColor=#028090;fontColor=#E4FDE1;fillColor=#F45B69;" vertex="1" parent="1">
          <mxGeometry x="480" y="80" width="40" height="40" as="geometry" />
        </mxCell>
        <mxCell id="diK1pq-tiVSuGxWWCqKm-6" value="1" style="whiteSpace=wrap;html=1;aspect=fixed;strokeColor=#028090;fontColor=#E4FDE1;fillColor=#F45B69;" vertex="1" parent="1">
          <mxGeometry x="320" y="160" width="40" height="40" as="geometry" />
        </mxCell>
        <mxCell id="diK1pq-tiVSuGxWWCqKm-7" value="2" style="whiteSpace=wrap;html=1;aspect=fixed;strokeColor=#028090;fontColor=#E4FDE1;fillColor=#F45B69;" vertex="1" parent="1">
          <mxGeometry x="360" y="160" width="40" height="40" as="geometry" />
        </mxCell>
        <mxCell id="diK1pq-tiVSuGxWWCqKm-8" value="3" style="whiteSpace=wrap;html=1;aspect=fixed;strokeColor=#028090;fontColor=#E4FDE1;fillColor=#F45B69;" vertex="1" parent="1">
          <mxGeometry x="400" y="160" width="40" height="40" as="geometry" />
        </mxCell>
        <mxCell id="diK1pq-tiVSuGxWWCqKm-9" value="4" style="whiteSpace=wrap;html=1;aspect=fixed;strokeColor=#028090;fontColor=#E4FDE1;fillColor=#F45B69;" vertex="1" parent="1">
          <mxGeometry x="440" y="160" width="40" height="40" as="geometry" />
        </mxCell>
        <mxCell id="diK1pq-tiVSuGxWWCqKm-10" value="5" style="whiteSpace=wrap;html=1;aspect=fixed;strokeColor=#028090;fontColor=#E4FDE1;fillColor=#F45B69;" vertex="1" parent="1">
          <mxGeometry x="480" y="160" width="40" height="40" as="geometry" />
        </mxCell>
      </root>
    </mxGraphModel>
  </diagram>
  <diagram id="nRv-9X6lGsbAIIfLJ4Gc" name="PÃ¡gina-4">
    <mxGraphModel dx="875" dy="558" grid="1" gridSize="10" guides="1" tooltips="1" connect="1" arrows="1" fold="1" page="1" pageScale="1" pageWidth="827" pageHeight="1169" math="0" shadow="0">
      <root>
        <mxCell id="0" />
        <mxCell id="1" parent="0" />
        <mxCell id="k-BV9qP5Ty0_jcsYHDoq-1" value="7" style="whiteSpace=wrap;html=1;aspect=fixed;labelBackgroundColor=none;fillColor=#F45B69;strokeColor=#028090;fontColor=#E4FDE1;" vertex="1" parent="1">
          <mxGeometry x="240" y="40" width="40" height="40" as="geometry" />
        </mxCell>
        <mxCell id="k-BV9qP5Ty0_jcsYHDoq-2" value="1" style="whiteSpace=wrap;html=1;aspect=fixed;labelBackgroundColor=none;fillColor=#F45B69;strokeColor=#028090;fontColor=#E4FDE1;" vertex="1" parent="1">
          <mxGeometry x="280" y="40" width="40" height="40" as="geometry" />
        </mxCell>
        <mxCell id="k-BV9qP5Ty0_jcsYHDoq-3" value="10" style="whiteSpace=wrap;html=1;aspect=fixed;labelBackgroundColor=none;fillColor=#F45B69;strokeColor=#028090;fontColor=#E4FDE1;" vertex="1" parent="1">
          <mxGeometry x="320" y="40" width="40" height="40" as="geometry" />
        </mxCell>
        <mxCell id="k-BV9qP5Ty0_jcsYHDoq-4" value="3" style="whiteSpace=wrap;html=1;aspect=fixed;labelBackgroundColor=none;fillColor=#F45B69;strokeColor=#028090;fontColor=#E4FDE1;" vertex="1" parent="1">
          <mxGeometry x="360" y="40" width="40" height="40" as="geometry" />
        </mxCell>
        <mxCell id="k-BV9qP5Ty0_jcsYHDoq-5" value="4" style="whiteSpace=wrap;html=1;aspect=fixed;labelBackgroundColor=none;fillColor=#F45B69;strokeColor=#028090;fontColor=#E4FDE1;" vertex="1" parent="1">
          <mxGeometry x="400" y="40" width="40" height="40" as="geometry" />
        </mxCell>
        <mxCell id="k-BV9qP5Ty0_jcsYHDoq-6" value="9" style="whiteSpace=wrap;html=1;aspect=fixed;labelBackgroundColor=none;fillColor=#F45B69;strokeColor=#028090;fontColor=#E4FDE1;" vertex="1" parent="1">
          <mxGeometry x="440" y="40" width="40" height="40" as="geometry" />
        </mxCell>
        <mxCell id="k-BV9qP5Ty0_jcsYHDoq-7" value="5" style="whiteSpace=wrap;html=1;aspect=fixed;labelBackgroundColor=none;fillColor=#F45B69;strokeColor=#028090;fontColor=#E4FDE1;" vertex="1" parent="1">
          <mxGeometry x="480" y="40" width="40" height="40" as="geometry" />
        </mxCell>
        <mxCell id="K1Yc7NeQx7vdBhSrU_Io-1" value="1" style="whiteSpace=wrap;html=1;aspect=fixed;labelBackgroundColor=none;fillColor=#F45B69;strokeColor=#028090;fontColor=#E4FDE1;" vertex="1" parent="1">
          <mxGeometry x="240" y="120" width="40" height="40" as="geometry" />
        </mxCell>
        <mxCell id="K1Yc7NeQx7vdBhSrU_Io-2" value="7" style="whiteSpace=wrap;html=1;aspect=fixed;labelBackgroundColor=none;fillColor=#F45B69;strokeColor=#028090;fontColor=#E4FDE1;" vertex="1" parent="1">
          <mxGeometry x="280" y="120" width="40" height="40" as="geometry" />
        </mxCell>
        <mxCell id="K1Yc7NeQx7vdBhSrU_Io-3" value="10" style="whiteSpace=wrap;html=1;aspect=fixed;labelBackgroundColor=none;fillColor=#F45B69;strokeColor=#028090;fontColor=#E4FDE1;" vertex="1" parent="1">
          <mxGeometry x="320" y="120" width="40" height="40" as="geometry" />
        </mxCell>
        <mxCell id="K1Yc7NeQx7vdBhSrU_Io-4" value="3" style="whiteSpace=wrap;html=1;aspect=fixed;labelBackgroundColor=none;fillColor=#F45B69;strokeColor=#028090;fontColor=#E4FDE1;" vertex="1" parent="1">
          <mxGeometry x="360" y="120" width="40" height="40" as="geometry" />
        </mxCell>
        <mxCell id="K1Yc7NeQx7vdBhSrU_Io-5" value="4" style="whiteSpace=wrap;html=1;aspect=fixed;labelBackgroundColor=none;fillColor=#F45B69;strokeColor=#028090;fontColor=#E4FDE1;" vertex="1" parent="1">
          <mxGeometry x="400" y="120" width="40" height="40" as="geometry" />
        </mxCell>
        <mxCell id="K1Yc7NeQx7vdBhSrU_Io-6" value="9" style="whiteSpace=wrap;html=1;aspect=fixed;labelBackgroundColor=none;fillColor=#F45B69;strokeColor=#028090;fontColor=#E4FDE1;" vertex="1" parent="1">
          <mxGeometry x="440" y="120" width="40" height="40" as="geometry" />
        </mxCell>
        <mxCell id="K1Yc7NeQx7vdBhSrU_Io-7" value="5" style="whiteSpace=wrap;html=1;aspect=fixed;labelBackgroundColor=none;fillColor=#F45B69;strokeColor=#028090;fontColor=#E4FDE1;" vertex="1" parent="1">
          <mxGeometry x="480" y="120" width="40" height="40" as="geometry" />
        </mxCell>
        <mxCell id="K1Yc7NeQx7vdBhSrU_Io-8" value="" style="endArrow=classic;html=1;rounded=0;strokeColor=#028090;fontColor=#E4FDE1;fillColor=#F45B69;edgeStyle=orthogonalEdgeStyle;" edge="1" parent="1">
          <mxGeometry width="50" height="50" relative="1" as="geometry">
            <mxPoint x="300" y="83" as="sourcePoint" />
            <mxPoint x="260" y="110" as="targetPoint" />
            <Array as="points">
              <mxPoint x="300" y="90" />
              <mxPoint x="260" y="90" />
            </Array>
          </mxGeometry>
        </mxCell>
        <mxCell id="K1Yc7NeQx7vdBhSrU_Io-9" value="1" style="whiteSpace=wrap;html=1;aspect=fixed;labelBackgroundColor=none;fillColor=#F45B69;strokeColor=#028090;fontColor=#E4FDE1;" vertex="1" parent="1">
          <mxGeometry x="240" y="200" width="40" height="40" as="geometry" />
        </mxCell>
        <mxCell id="K1Yc7NeQx7vdBhSrU_Io-10" value="3" style="whiteSpace=wrap;html=1;aspect=fixed;labelBackgroundColor=none;fillColor=#F45B69;strokeColor=#028090;fontColor=#E4FDE1;" vertex="1" parent="1">
          <mxGeometry x="280" y="200" width="40" height="40" as="geometry" />
        </mxCell>
        <mxCell id="K1Yc7NeQx7vdBhSrU_Io-11" value="7" style="whiteSpace=wrap;html=1;aspect=fixed;labelBackgroundColor=none;fillColor=#F45B69;strokeColor=#028090;fontColor=#E4FDE1;" vertex="1" parent="1">
          <mxGeometry x="320" y="200" width="40" height="40" as="geometry" />
        </mxCell>
        <mxCell id="K1Yc7NeQx7vdBhSrU_Io-12" value="10" style="whiteSpace=wrap;html=1;aspect=fixed;labelBackgroundColor=none;fillColor=#F45B69;strokeColor=#028090;fontColor=#E4FDE1;" vertex="1" parent="1">
          <mxGeometry x="360" y="200" width="40" height="40" as="geometry" />
        </mxCell>
        <mxCell id="K1Yc7NeQx7vdBhSrU_Io-13" value="4" style="whiteSpace=wrap;html=1;aspect=fixed;labelBackgroundColor=none;fillColor=#F45B69;strokeColor=#028090;fontColor=#E4FDE1;" vertex="1" parent="1">
          <mxGeometry x="400" y="200" width="40" height="40" as="geometry" />
        </mxCell>
        <mxCell id="K1Yc7NeQx7vdBhSrU_Io-14" value="9" style="whiteSpace=wrap;html=1;aspect=fixed;labelBackgroundColor=none;fillColor=#F45B69;strokeColor=#028090;fontColor=#E4FDE1;" vertex="1" parent="1">
          <mxGeometry x="440" y="200" width="40" height="40" as="geometry" />
        </mxCell>
        <mxCell id="K1Yc7NeQx7vdBhSrU_Io-15" value="5" style="whiteSpace=wrap;html=1;aspect=fixed;labelBackgroundColor=none;fillColor=#F45B69;strokeColor=#028090;fontColor=#E4FDE1;" vertex="1" parent="1">
          <mxGeometry x="480" y="200" width="40" height="40" as="geometry" />
        </mxCell>
        <mxCell id="K1Yc7NeQx7vdBhSrU_Io-16" value="" style="endArrow=classic;html=1;rounded=0;strokeColor=#028090;fontColor=#E4FDE1;fillColor=#F45B69;edgeStyle=orthogonalEdgeStyle;exitX=0.508;exitY=1.07;exitDx=0;exitDy=0;exitPerimeter=0;" edge="1" parent="1">
          <mxGeometry width="50" height="50" relative="1" as="geometry">
            <mxPoint x="380" y="160" as="sourcePoint" />
            <mxPoint x="300" y="190" as="targetPoint" />
            <Array as="points">
              <mxPoint x="380" y="167" />
              <mxPoint x="300" y="167" />
              <mxPoint x="300" y="187" />
            </Array>
          </mxGeometry>
        </mxCell>
        <mxCell id="K1Yc7NeQx7vdBhSrU_Io-18" value="1" style="whiteSpace=wrap;html=1;aspect=fixed;labelBackgroundColor=none;fillColor=#F45B69;strokeColor=#028090;fontColor=#E4FDE1;" vertex="1" parent="1">
          <mxGeometry x="240" y="280" width="40" height="40" as="geometry" />
        </mxCell>
        <mxCell id="K1Yc7NeQx7vdBhSrU_Io-19" value="3" style="whiteSpace=wrap;html=1;aspect=fixed;labelBackgroundColor=none;fillColor=#F45B69;strokeColor=#028090;fontColor=#E4FDE1;" vertex="1" parent="1">
          <mxGeometry x="280" y="280" width="40" height="40" as="geometry" />
        </mxCell>
        <mxCell id="K1Yc7NeQx7vdBhSrU_Io-20" value="4" style="whiteSpace=wrap;html=1;aspect=fixed;labelBackgroundColor=none;fillColor=#F45B69;strokeColor=#028090;fontColor=#E4FDE1;" vertex="1" parent="1">
          <mxGeometry x="320" y="280" width="40" height="40" as="geometry" />
        </mxCell>
        <mxCell id="K1Yc7NeQx7vdBhSrU_Io-21" value="7" style="whiteSpace=wrap;html=1;aspect=fixed;labelBackgroundColor=none;fillColor=#F45B69;strokeColor=#028090;fontColor=#E4FDE1;" vertex="1" parent="1">
          <mxGeometry x="360" y="280" width="40" height="40" as="geometry" />
        </mxCell>
        <mxCell id="K1Yc7NeQx7vdBhSrU_Io-22" value="10" style="whiteSpace=wrap;html=1;aspect=fixed;labelBackgroundColor=none;fillColor=#F45B69;strokeColor=#028090;fontColor=#E4FDE1;" vertex="1" parent="1">
          <mxGeometry x="400" y="280" width="40" height="40" as="geometry" />
        </mxCell>
        <mxCell id="K1Yc7NeQx7vdBhSrU_Io-23" value="9" style="whiteSpace=wrap;html=1;aspect=fixed;labelBackgroundColor=none;fillColor=#F45B69;strokeColor=#028090;fontColor=#E4FDE1;" vertex="1" parent="1">
          <mxGeometry x="440" y="280" width="40" height="40" as="geometry" />
        </mxCell>
        <mxCell id="K1Yc7NeQx7vdBhSrU_Io-24" value="5" style="whiteSpace=wrap;html=1;aspect=fixed;labelBackgroundColor=none;fillColor=#F45B69;strokeColor=#028090;fontColor=#E4FDE1;" vertex="1" parent="1">
          <mxGeometry x="480" y="280" width="40" height="40" as="geometry" />
        </mxCell>
        <mxCell id="K1Yc7NeQx7vdBhSrU_Io-32" value="" style="endArrow=classic;html=1;rounded=0;strokeColor=#028090;fontColor=#E4FDE1;fillColor=#F45B69;edgeStyle=orthogonalEdgeStyle;exitX=0.508;exitY=1.07;exitDx=0;exitDy=0;exitPerimeter=0;" edge="1" parent="1">
          <mxGeometry width="50" height="50" relative="1" as="geometry">
            <mxPoint x="420" y="240" as="sourcePoint" />
            <mxPoint x="340" y="270" as="targetPoint" />
            <Array as="points">
              <mxPoint x="420" y="247" />
              <mxPoint x="340" y="247" />
              <mxPoint x="340" y="267" />
            </Array>
          </mxGeometry>
        </mxCell>
        <mxCell id="K1Yc7NeQx7vdBhSrU_Io-33" value="1" style="whiteSpace=wrap;html=1;aspect=fixed;labelBackgroundColor=none;fillColor=#F45B69;strokeColor=#028090;fontColor=#E4FDE1;" vertex="1" parent="1">
          <mxGeometry x="240" y="360" width="40" height="40" as="geometry" />
        </mxCell>
        <mxCell id="K1Yc7NeQx7vdBhSrU_Io-34" value="3" style="whiteSpace=wrap;html=1;aspect=fixed;labelBackgroundColor=none;fillColor=#F45B69;strokeColor=#028090;fontColor=#E4FDE1;" vertex="1" parent="1">
          <mxGeometry x="280" y="360" width="40" height="40" as="geometry" />
        </mxCell>
        <mxCell id="K1Yc7NeQx7vdBhSrU_Io-35" value="4" style="whiteSpace=wrap;html=1;aspect=fixed;labelBackgroundColor=none;fillColor=#F45B69;strokeColor=#028090;fontColor=#E4FDE1;" vertex="1" parent="1">
          <mxGeometry x="320" y="360" width="40" height="40" as="geometry" />
        </mxCell>
        <mxCell id="K1Yc7NeQx7vdBhSrU_Io-36" value="7" style="whiteSpace=wrap;html=1;aspect=fixed;labelBackgroundColor=none;fillColor=#F45B69;strokeColor=#028090;fontColor=#E4FDE1;" vertex="1" parent="1">
          <mxGeometry x="360" y="360" width="40" height="40" as="geometry" />
        </mxCell>
        <mxCell id="K1Yc7NeQx7vdBhSrU_Io-37" value="9" style="whiteSpace=wrap;html=1;aspect=fixed;labelBackgroundColor=none;fillColor=#F45B69;strokeColor=#028090;fontColor=#E4FDE1;" vertex="1" parent="1">
          <mxGeometry x="400" y="360" width="40" height="40" as="geometry" />
        </mxCell>
        <mxCell id="K1Yc7NeQx7vdBhSrU_Io-38" value="10" style="whiteSpace=wrap;html=1;aspect=fixed;labelBackgroundColor=none;fillColor=#F45B69;strokeColor=#028090;fontColor=#E4FDE1;" vertex="1" parent="1">
          <mxGeometry x="440" y="360" width="40" height="40" as="geometry" />
        </mxCell>
        <mxCell id="K1Yc7NeQx7vdBhSrU_Io-39" value="5" style="whiteSpace=wrap;html=1;aspect=fixed;labelBackgroundColor=none;fillColor=#F45B69;strokeColor=#028090;fontColor=#E4FDE1;" vertex="1" parent="1">
          <mxGeometry x="480" y="360" width="40" height="40" as="geometry" />
        </mxCell>
        <mxCell id="K1Yc7NeQx7vdBhSrU_Io-40" value="" style="endArrow=classic;html=1;rounded=0;strokeColor=#028090;fontColor=#E4FDE1;fillColor=#F45B69;edgeStyle=orthogonalEdgeStyle;exitX=0.508;exitY=1.07;exitDx=0;exitDy=0;exitPerimeter=0;" edge="1" parent="1">
          <mxGeometry width="50" height="50" relative="1" as="geometry">
            <mxPoint x="460" y="320" as="sourcePoint" />
            <mxPoint x="420" y="350" as="targetPoint" />
            <Array as="points">
              <mxPoint x="460" y="327" />
              <mxPoint x="420" y="327" />
              <mxPoint x="420" y="350" />
            </Array>
          </mxGeometry>
        </mxCell>
        <mxCell id="K1Yc7NeQx7vdBhSrU_Io-41" value="1" style="whiteSpace=wrap;html=1;aspect=fixed;labelBackgroundColor=none;fillColor=#F45B69;strokeColor=#028090;fontColor=#E4FDE1;" vertex="1" parent="1">
          <mxGeometry x="240" y="440" width="40" height="40" as="geometry" />
        </mxCell>
        <mxCell id="K1Yc7NeQx7vdBhSrU_Io-42" value="3" style="whiteSpace=wrap;html=1;aspect=fixed;labelBackgroundColor=none;fillColor=#F45B69;strokeColor=#028090;fontColor=#E4FDE1;" vertex="1" parent="1">
          <mxGeometry x="280" y="440" width="40" height="40" as="geometry" />
        </mxCell>
        <mxCell id="K1Yc7NeQx7vdBhSrU_Io-43" value="4" style="whiteSpace=wrap;html=1;aspect=fixed;labelBackgroundColor=none;fillColor=#F45B69;strokeColor=#028090;fontColor=#E4FDE1;" vertex="1" parent="1">
          <mxGeometry x="320" y="440" width="40" height="40" as="geometry" />
        </mxCell>
        <mxCell id="K1Yc7NeQx7vdBhSrU_Io-44" value="5" style="whiteSpace=wrap;html=1;aspect=fixed;labelBackgroundColor=none;fillColor=#F45B69;strokeColor=#028090;fontColor=#E4FDE1;" vertex="1" parent="1">
          <mxGeometry x="360" y="440" width="40" height="40" as="geometry" />
        </mxCell>
        <mxCell id="K1Yc7NeQx7vdBhSrU_Io-45" value="7" style="whiteSpace=wrap;html=1;aspect=fixed;labelBackgroundColor=none;fillColor=#F45B69;strokeColor=#028090;fontColor=#E4FDE1;" vertex="1" parent="1">
          <mxGeometry x="400" y="440" width="40" height="40" as="geometry" />
        </mxCell>
        <mxCell id="K1Yc7NeQx7vdBhSrU_Io-46" value="9" style="whiteSpace=wrap;html=1;aspect=fixed;labelBackgroundColor=none;fillColor=#F45B69;strokeColor=#028090;fontColor=#E4FDE1;" vertex="1" parent="1">
          <mxGeometry x="440" y="440" width="40" height="40" as="geometry" />
        </mxCell>
        <mxCell id="K1Yc7NeQx7vdBhSrU_Io-47" value="10" style="whiteSpace=wrap;html=1;aspect=fixed;labelBackgroundColor=none;fillColor=#F45B69;strokeColor=#028090;fontColor=#E4FDE1;" vertex="1" parent="1">
          <mxGeometry x="480" y="440" width="40" height="40" as="geometry" />
        </mxCell>
        <mxCell id="K1Yc7NeQx7vdBhSrU_Io-48" value="" style="endArrow=classic;html=1;rounded=0;strokeColor=#028090;fontColor=#E4FDE1;fillColor=#F45B69;edgeStyle=orthogonalEdgeStyle;exitX=0.508;exitY=1.07;exitDx=0;exitDy=0;exitPerimeter=0;" edge="1" parent="1">
          <mxGeometry width="50" height="50" relative="1" as="geometry">
            <mxPoint x="500" y="400" as="sourcePoint" />
            <mxPoint x="380" y="430" as="targetPoint" />
            <Array as="points">
              <mxPoint x="500" y="407" />
              <mxPoint x="380" y="407" />
              <mxPoint x="380" y="430" />
            </Array>
          </mxGeometry>
        </mxCell>
      </root>
    </mxGraphModel>
  </diagram>
  <diagram id="oD95BfFnARiQhCssKyfp" name="PÃ¡gina-5">
    <mxGraphModel dx="420" dy="268" grid="1" gridSize="10" guides="1" tooltips="1" connect="1" arrows="1" fold="1" page="1" pageScale="1" pageWidth="827" pageHeight="1169" math="0" shadow="0">
      <root>
        <mxCell id="0" />
        <mxCell id="1" parent="0" />
        <mxCell id="SCp4jYE38xhnU1Wl_dmM-1" value="5" style="whiteSpace=wrap;html=1;aspect=fixed;strokeColor=#028090;fontColor=#E4FDE1;fillColor=#F45B69;" vertex="1" parent="1">
          <mxGeometry x="200" y="40" width="40" height="40" as="geometry" />
        </mxCell>
        <mxCell id="SCp4jYE38xhnU1Wl_dmM-2" value="4" style="whiteSpace=wrap;html=1;aspect=fixed;strokeColor=#028090;fontColor=#E4FDE1;fillColor=#F45B69;" vertex="1" parent="1">
          <mxGeometry x="240" y="40" width="40" height="40" as="geometry" />
        </mxCell>
        <mxCell id="SCp4jYE38xhnU1Wl_dmM-3" value="3" style="whiteSpace=wrap;html=1;aspect=fixed;strokeColor=#028090;fontColor=#E4FDE1;fillColor=#F45B69;" vertex="1" parent="1">
          <mxGeometry x="280" y="40" width="40" height="40" as="geometry" />
        </mxCell>
        <mxCell id="SCp4jYE38xhnU1Wl_dmM-4" value="2" style="whiteSpace=wrap;html=1;aspect=fixed;strokeColor=#028090;fontColor=#E4FDE1;fillColor=#F45B69;" vertex="1" parent="1">
          <mxGeometry x="320" y="40" width="40" height="40" as="geometry" />
        </mxCell>
        <mxCell id="SCp4jYE38xhnU1Wl_dmM-5" value="1" style="whiteSpace=wrap;html=1;aspect=fixed;strokeColor=#028090;fontColor=#E4FDE1;fillColor=#F45B69;" vertex="1" parent="1">
          <mxGeometry x="360" y="40" width="40" height="40" as="geometry" />
        </mxCell>
        <mxCell id="ipTnrxAOVJhdHtZZN2Ko-1" value="" style="endArrow=classic;html=1;rounded=0;strokeColor=#028090;fontColor=#E4FDE1;fillColor=#F45B69;edgeStyle=orthogonalEdgeStyle;" edge="1" parent="1">
          <mxGeometry width="50" height="50" relative="1" as="geometry">
            <mxPoint x="260" y="83" as="sourcePoint" />
            <mxPoint x="220" y="110" as="targetPoint" />
            <Array as="points">
              <mxPoint x="260" y="90" />
              <mxPoint x="220" y="90" />
            </Array>
          </mxGeometry>
        </mxCell>
        <mxCell id="ipTnrxAOVJhdHtZZN2Ko-2" value="4" style="whiteSpace=wrap;html=1;aspect=fixed;strokeColor=#028090;fontColor=#E4FDE1;fillColor=#F45B69;" vertex="1" parent="1">
          <mxGeometry x="200" y="120" width="40" height="40" as="geometry" />
        </mxCell>
        <mxCell id="ipTnrxAOVJhdHtZZN2Ko-3" value="5" style="whiteSpace=wrap;html=1;aspect=fixed;strokeColor=#028090;fontColor=#E4FDE1;fillColor=#F45B69;" vertex="1" parent="1">
          <mxGeometry x="240" y="120" width="40" height="40" as="geometry" />
        </mxCell>
        <mxCell id="ipTnrxAOVJhdHtZZN2Ko-4" value="3" style="whiteSpace=wrap;html=1;aspect=fixed;strokeColor=#028090;fontColor=#E4FDE1;fillColor=#F45B69;" vertex="1" parent="1">
          <mxGeometry x="280" y="120" width="40" height="40" as="geometry" />
        </mxCell>
        <mxCell id="ipTnrxAOVJhdHtZZN2Ko-5" value="2" style="whiteSpace=wrap;html=1;aspect=fixed;strokeColor=#028090;fontColor=#E4FDE1;fillColor=#F45B69;" vertex="1" parent="1">
          <mxGeometry x="320" y="120" width="40" height="40" as="geometry" />
        </mxCell>
        <mxCell id="ipTnrxAOVJhdHtZZN2Ko-6" value="1" style="whiteSpace=wrap;html=1;aspect=fixed;strokeColor=#028090;fontColor=#E4FDE1;fillColor=#F45B69;" vertex="1" parent="1">
          <mxGeometry x="360" y="120" width="40" height="40" as="geometry" />
        </mxCell>
        <mxCell id="ipTnrxAOVJhdHtZZN2Ko-7" value="" style="endArrow=classic;html=1;rounded=0;strokeColor=#028090;fontColor=#E4FDE1;fillColor=#F45B69;edgeStyle=orthogonalEdgeStyle;" edge="1" parent="1">
          <mxGeometry width="50" height="50" relative="1" as="geometry">
            <mxPoint x="300" y="160" as="sourcePoint" />
            <mxPoint x="220" y="187" as="targetPoint" />
            <Array as="points">
              <mxPoint x="300" y="167" />
              <mxPoint x="220" y="167" />
              <mxPoint x="220" y="187" />
            </Array>
          </mxGeometry>
        </mxCell>
        <mxCell id="ipTnrxAOVJhdHtZZN2Ko-8" value="3" style="whiteSpace=wrap;html=1;aspect=fixed;strokeColor=#028090;fontColor=#E4FDE1;fillColor=#F45B69;" vertex="1" parent="1">
          <mxGeometry x="200" y="200" width="40" height="40" as="geometry" />
        </mxCell>
        <mxCell id="ipTnrxAOVJhdHtZZN2Ko-9" value="4" style="whiteSpace=wrap;html=1;aspect=fixed;strokeColor=#028090;fontColor=#E4FDE1;fillColor=#F45B69;" vertex="1" parent="1">
          <mxGeometry x="240" y="200" width="40" height="40" as="geometry" />
        </mxCell>
        <mxCell id="ipTnrxAOVJhdHtZZN2Ko-10" value="5" style="whiteSpace=wrap;html=1;aspect=fixed;strokeColor=#028090;fontColor=#E4FDE1;fillColor=#F45B69;" vertex="1" parent="1">
          <mxGeometry x="280" y="200" width="40" height="40" as="geometry" />
        </mxCell>
        <mxCell id="ipTnrxAOVJhdHtZZN2Ko-11" value="2" style="whiteSpace=wrap;html=1;aspect=fixed;strokeColor=#028090;fontColor=#E4FDE1;fillColor=#F45B69;" vertex="1" parent="1">
          <mxGeometry x="320" y="200" width="40" height="40" as="geometry" />
        </mxCell>
        <mxCell id="ipTnrxAOVJhdHtZZN2Ko-12" value="1" style="whiteSpace=wrap;html=1;aspect=fixed;strokeColor=#028090;fontColor=#E4FDE1;fillColor=#F45B69;" vertex="1" parent="1">
          <mxGeometry x="360" y="200" width="40" height="40" as="geometry" />
        </mxCell>
        <mxCell id="ipTnrxAOVJhdHtZZN2Ko-13" value="2" style="whiteSpace=wrap;html=1;aspect=fixed;strokeColor=#028090;fontColor=#E4FDE1;fillColor=#F45B69;" vertex="1" parent="1">
          <mxGeometry x="200" y="280" width="40" height="40" as="geometry" />
        </mxCell>
        <mxCell id="ipTnrxAOVJhdHtZZN2Ko-14" value="3" style="whiteSpace=wrap;html=1;aspect=fixed;strokeColor=#028090;fontColor=#E4FDE1;fillColor=#F45B69;" vertex="1" parent="1">
          <mxGeometry x="240" y="280" width="40" height="40" as="geometry" />
        </mxCell>
        <mxCell id="ipTnrxAOVJhdHtZZN2Ko-15" value="4" style="whiteSpace=wrap;html=1;aspect=fixed;strokeColor=#028090;fontColor=#E4FDE1;fillColor=#F45B69;" vertex="1" parent="1">
          <mxGeometry x="280" y="280" width="40" height="40" as="geometry" />
        </mxCell>
        <mxCell id="ipTnrxAOVJhdHtZZN2Ko-16" value="5" style="whiteSpace=wrap;html=1;aspect=fixed;strokeColor=#028090;fontColor=#E4FDE1;fillColor=#F45B69;" vertex="1" parent="1">
          <mxGeometry x="320" y="280" width="40" height="40" as="geometry" />
        </mxCell>
        <mxCell id="ipTnrxAOVJhdHtZZN2Ko-17" value="1" style="whiteSpace=wrap;html=1;aspect=fixed;strokeColor=#028090;fontColor=#E4FDE1;fillColor=#F45B69;" vertex="1" parent="1">
          <mxGeometry x="360" y="280" width="40" height="40" as="geometry" />
        </mxCell>
        <mxCell id="ipTnrxAOVJhdHtZZN2Ko-18" value="" style="endArrow=classic;html=1;rounded=0;strokeColor=#028090;fontColor=#E4FDE1;fillColor=#F45B69;edgeStyle=orthogonalEdgeStyle;" edge="1" parent="1">
          <mxGeometry width="50" height="50" relative="1" as="geometry">
            <mxPoint x="340" y="240" as="sourcePoint" />
            <mxPoint x="220" y="270" as="targetPoint" />
            <Array as="points">
              <mxPoint x="340" y="247" />
              <mxPoint x="220" y="247" />
              <mxPoint x="220" y="267" />
            </Array>
          </mxGeometry>
        </mxCell>
        <mxCell id="ipTnrxAOVJhdHtZZN2Ko-19" value="" style="endArrow=classic;html=1;rounded=0;strokeColor=#028090;fontColor=#E4FDE1;fillColor=#F45B69;edgeStyle=orthogonalEdgeStyle;" edge="1" parent="1">
          <mxGeometry width="50" height="50" relative="1" as="geometry">
            <mxPoint x="380" y="320" as="sourcePoint" />
            <mxPoint x="220" y="350" as="targetPoint" />
            <Array as="points">
              <mxPoint x="380" y="327" />
              <mxPoint x="220" y="327" />
              <mxPoint x="220" y="350" />
            </Array>
          </mxGeometry>
        </mxCell>
        <mxCell id="ipTnrxAOVJhdHtZZN2Ko-20" value="1" style="whiteSpace=wrap;html=1;aspect=fixed;strokeColor=#028090;fontColor=#E4FDE1;fillColor=#F45B69;" vertex="1" parent="1">
          <mxGeometry x="200" y="360" width="40" height="40" as="geometry" />
        </mxCell>
        <mxCell id="ipTnrxAOVJhdHtZZN2Ko-21" value="2" style="whiteSpace=wrap;html=1;aspect=fixed;strokeColor=#028090;fontColor=#E4FDE1;fillColor=#F45B69;" vertex="1" parent="1">
          <mxGeometry x="240" y="360" width="40" height="40" as="geometry" />
        </mxCell>
        <mxCell id="ipTnrxAOVJhdHtZZN2Ko-22" value="3" style="whiteSpace=wrap;html=1;aspect=fixed;strokeColor=#028090;fontColor=#E4FDE1;fillColor=#F45B69;" vertex="1" parent="1">
          <mxGeometry x="280" y="360" width="40" height="40" as="geometry" />
        </mxCell>
        <mxCell id="ipTnrxAOVJhdHtZZN2Ko-23" value="4" style="whiteSpace=wrap;html=1;aspect=fixed;strokeColor=#028090;fontColor=#E4FDE1;fillColor=#F45B69;" vertex="1" parent="1">
          <mxGeometry x="320" y="360" width="40" height="40" as="geometry" />
        </mxCell>
        <mxCell id="ipTnrxAOVJhdHtZZN2Ko-24" value="5" style="whiteSpace=wrap;html=1;aspect=fixed;strokeColor=#028090;fontColor=#E4FDE1;fillColor=#F45B69;" vertex="1" parent="1">
          <mxGeometry x="360" y="360" width="40" height="40" as="geometry" />
        </mxCell>
      </root>
    </mxGraphModel>
  </diagram>
  <diagram id="Ba9wlr11rqqaXVGeYhyj" name="PÃ¡gina-6">
    <mxGraphModel dx="1235" dy="787" grid="1" gridSize="10" guides="1" tooltips="1" connect="1" arrows="1" fold="1" page="1" pageScale="1" pageWidth="827" pageHeight="1169" math="0" shadow="0">
      <root>
        <mxCell id="0" />
        <mxCell id="1" parent="0" />
        <mxCell id="NcvqXxJW4e71j64YhQz_-1" value="7" style="whiteSpace=wrap;html=1;aspect=fixed;labelBackgroundColor=none;fillColor=#dae8fc;strokeColor=#6c8ebf;" vertex="1" parent="1">
          <mxGeometry x="280" y="40" width="40" height="40" as="geometry" />
        </mxCell>
        <mxCell id="NcvqXxJW4e71j64YhQz_-2" value="1" style="whiteSpace=wrap;html=1;aspect=fixed;labelBackgroundColor=none;fillColor=#dae8fc;strokeColor=#6c8ebf;" vertex="1" parent="1">
          <mxGeometry x="320" y="40" width="40" height="40" as="geometry" />
        </mxCell>
        <mxCell id="NcvqXxJW4e71j64YhQz_-3" value="10" style="whiteSpace=wrap;html=1;aspect=fixed;labelBackgroundColor=none;fillColor=#dae8fc;strokeColor=#6c8ebf;" vertex="1" parent="1">
          <mxGeometry x="360" y="40" width="40" height="40" as="geometry" />
        </mxCell>
        <mxCell id="NcvqXxJW4e71j64YhQz_-4" value="3" style="whiteSpace=wrap;html=1;aspect=fixed;labelBackgroundColor=none;fillColor=#dae8fc;strokeColor=#6c8ebf;" vertex="1" parent="1">
          <mxGeometry x="400" y="40" width="40" height="40" as="geometry" />
        </mxCell>
        <mxCell id="NcvqXxJW4e71j64YhQz_-5" value="4" style="whiteSpace=wrap;html=1;aspect=fixed;labelBackgroundColor=none;fillColor=#F45B69;strokeColor=#028090;fontColor=#E4FDE1;" vertex="1" parent="1">
          <mxGeometry x="440" y="40" width="40" height="40" as="geometry" />
        </mxCell>
        <mxCell id="NcvqXxJW4e71j64YhQz_-6" value="9" style="whiteSpace=wrap;html=1;aspect=fixed;labelBackgroundColor=none;fillColor=#F45B69;strokeColor=#028090;fontColor=#E4FDE1;" vertex="1" parent="1">
          <mxGeometry x="480" y="40" width="40" height="40" as="geometry" />
        </mxCell>
        <mxCell id="NcvqXxJW4e71j64YhQz_-7" value="5" style="whiteSpace=wrap;html=1;aspect=fixed;labelBackgroundColor=none;fillColor=#F45B69;strokeColor=#028090;fontColor=#E4FDE1;" vertex="1" parent="1">
          <mxGeometry x="520" y="40" width="40" height="40" as="geometry" />
        </mxCell>
        <mxCell id="NcvqXxJW4e71j64YhQz_-9" value="7" style="whiteSpace=wrap;html=1;aspect=fixed;labelBackgroundColor=none;fillColor=#dae8fc;strokeColor=#6c8ebf;" vertex="1" parent="1">
          <mxGeometry x="240" y="120" width="40" height="40" as="geometry" />
        </mxCell>
        <mxCell id="NcvqXxJW4e71j64YhQz_-10" value="1" style="whiteSpace=wrap;html=1;aspect=fixed;labelBackgroundColor=none;fillColor=#dae8fc;strokeColor=#6c8ebf;" vertex="1" parent="1">
          <mxGeometry x="280" y="120" width="40" height="40" as="geometry" />
        </mxCell>
        <mxCell id="NcvqXxJW4e71j64YhQz_-11" value="10" style="whiteSpace=wrap;html=1;aspect=fixed;labelBackgroundColor=none;fillColor=#F45B69;strokeColor=#028090;fontColor=#E4FDE1;" vertex="1" parent="1">
          <mxGeometry x="320" y="120" width="40" height="40" as="geometry" />
        </mxCell>
        <mxCell id="NcvqXxJW4e71j64YhQz_-12" value="3" style="whiteSpace=wrap;html=1;aspect=fixed;labelBackgroundColor=none;fillColor=#F45B69;strokeColor=#028090;fontColor=#E4FDE1;" vertex="1" parent="1">
          <mxGeometry x="360" y="120" width="40" height="40" as="geometry" />
        </mxCell>
        <mxCell id="NcvqXxJW4e71j64YhQz_-13" value="4" style="whiteSpace=wrap;html=1;aspect=fixed;labelBackgroundColor=none;fillColor=#dae8fc;strokeColor=#6c8ebf;" vertex="1" parent="1">
          <mxGeometry x="460" y="120" width="40" height="40" as="geometry" />
        </mxCell>
        <mxCell id="NcvqXxJW4e71j64YhQz_-14" value="9" style="whiteSpace=wrap;html=1;aspect=fixed;labelBackgroundColor=none;fillColor=#F45B69;strokeColor=#028090;fontColor=#E4FDE1;" vertex="1" parent="1">
          <mxGeometry x="500" y="120" width="40" height="40" as="geometry" />
        </mxCell>
        <mxCell id="NcvqXxJW4e71j64YhQz_-15" value="5" style="whiteSpace=wrap;html=1;aspect=fixed;labelBackgroundColor=none;fillColor=#F45B69;strokeColor=#028090;fontColor=#E4FDE1;" vertex="1" parent="1">
          <mxGeometry x="540" y="120" width="40" height="40" as="geometry" />
        </mxCell>
        <mxCell id="NcvqXxJW4e71j64YhQz_-16" value="" style="endArrow=classic;html=1;rounded=0;strokeColor=#028090;fontColor=#E4FDE1;fillColor=#F45B69;edgeStyle=orthogonalEdgeStyle;" edge="1" parent="1">
          <mxGeometry width="50" height="50" relative="1" as="geometry">
            <mxPoint x="360" y="80" as="sourcePoint" />
            <mxPoint x="320" y="110" as="targetPoint" />
            <Array as="points">
              <mxPoint x="360" y="95" />
              <mxPoint x="320" y="95" />
              <mxPoint x="320" y="110" />
            </Array>
          </mxGeometry>
        </mxCell>
        <mxCell id="NcvqXxJW4e71j64YhQz_-17" value="7" style="whiteSpace=wrap;html=1;aspect=fixed;labelBackgroundColor=none;fillColor=#dae8fc;strokeColor=#6c8ebf;" vertex="1" parent="1">
          <mxGeometry x="220" y="200" width="40" height="40" as="geometry" />
        </mxCell>
        <mxCell id="NcvqXxJW4e71j64YhQz_-19" value="1" style="whiteSpace=wrap;html=1;aspect=fixed;labelBackgroundColor=none;fillColor=#F45B69;strokeColor=#028090;fontColor=#E4FDE1;" vertex="1" parent="1">
          <mxGeometry x="260" y="200" width="40" height="40" as="geometry" />
        </mxCell>
        <mxCell id="NcvqXxJW4e71j64YhQz_-20" value="10" style="whiteSpace=wrap;html=1;aspect=fixed;labelBackgroundColor=none;fillColor=#F45B69;strokeColor=#028090;fontColor=#E4FDE1;" vertex="1" parent="1">
          <mxGeometry x="340" y="200" width="40" height="40" as="geometry" />
        </mxCell>
        <mxCell id="NcvqXxJW4e71j64YhQz_-21" value="3" style="whiteSpace=wrap;html=1;aspect=fixed;labelBackgroundColor=none;fillColor=#F45B69;strokeColor=#028090;fontColor=#E4FDE1;" vertex="1" parent="1">
          <mxGeometry x="380" y="200" width="40" height="40" as="geometry" />
        </mxCell>
        <mxCell id="NcvqXxJW4e71j64YhQz_-22" value="7" style="whiteSpace=wrap;html=1;aspect=fixed;labelBackgroundColor=none;fillColor=#F45B69;strokeColor=#028090;fontColor=#E4FDE1;" vertex="1" parent="1">
          <mxGeometry x="210" y="280" width="40" height="40" as="geometry" />
        </mxCell>
        <mxCell id="NcvqXxJW4e71j64YhQz_-23" value="1" style="whiteSpace=wrap;html=1;aspect=fixed;labelBackgroundColor=none;fillColor=#F45B69;strokeColor=#028090;fontColor=#E4FDE1;" vertex="1" parent="1">
          <mxGeometry x="270" y="280" width="40" height="40" as="geometry" />
        </mxCell>
        <mxCell id="NcvqXxJW4e71j64YhQz_-24" value="10" style="whiteSpace=wrap;html=1;aspect=fixed;labelBackgroundColor=none;fillColor=#F45B69;strokeColor=#028090;fontColor=#E4FDE1;" vertex="1" parent="1">
          <mxGeometry x="330" y="280" width="40" height="40" as="geometry" />
        </mxCell>
        <mxCell id="NcvqXxJW4e71j64YhQz_-25" value="3" style="whiteSpace=wrap;html=1;aspect=fixed;labelBackgroundColor=none;fillColor=#F45B69;strokeColor=#028090;fontColor=#E4FDE1;" vertex="1" parent="1">
          <mxGeometry x="390" y="280" width="40" height="40" as="geometry" />
        </mxCell>
        <mxCell id="NcvqXxJW4e71j64YhQz_-26" value="4" style="whiteSpace=wrap;html=1;aspect=fixed;labelBackgroundColor=none;fillColor=#F45B69;strokeColor=#028090;fontColor=#E4FDE1;" vertex="1" parent="1">
          <mxGeometry x="450" y="200" width="40" height="40" as="geometry" />
        </mxCell>
        <mxCell id="NcvqXxJW4e71j64YhQz_-28" value="9" style="whiteSpace=wrap;html=1;aspect=fixed;labelBackgroundColor=none;fillColor=#dae8fc;strokeColor=#6c8ebf;" vertex="1" parent="1">
          <mxGeometry x="510" y="200" width="40" height="40" as="geometry" />
        </mxCell>
        <mxCell id="NcvqXxJW4e71j64YhQz_-29" value="5" style="whiteSpace=wrap;html=1;aspect=fixed;labelBackgroundColor=none;fillColor=#F45B69;strokeColor=#028090;fontColor=#E4FDE1;" vertex="1" parent="1">
          <mxGeometry x="550" y="200" width="40" height="40" as="geometry" />
        </mxCell>
        <mxCell id="NcvqXxJW4e71j64YhQz_-30" value="9" style="whiteSpace=wrap;html=1;aspect=fixed;labelBackgroundColor=none;fillColor=#F45B69;strokeColor=#028090;fontColor=#E4FDE1;" vertex="1" parent="1">
          <mxGeometry x="500" y="280" width="40" height="40" as="geometry" />
        </mxCell>
        <mxCell id="NcvqXxJW4e71j64YhQz_-31" value="5" style="whiteSpace=wrap;html=1;aspect=fixed;labelBackgroundColor=none;fillColor=#F45B69;strokeColor=#028090;fontColor=#E4FDE1;" vertex="1" parent="1">
          <mxGeometry x="560" y="280" width="40" height="40" as="geometry" />
        </mxCell>
        <mxCell id="NcvqXxJW4e71j64YhQz_-32" value="" style="endArrow=classic;html=1;rounded=0;strokeColor=#028090;fontColor=#E4FDE1;fillColor=#F45B69;edgeStyle=orthogonalEdgeStyle;" edge="1" parent="1">
          <mxGeometry width="50" height="50" relative="1" as="geometry">
            <mxPoint x="280" y="160" as="sourcePoint" />
            <mxPoint x="260" y="190" as="targetPoint" />
            <Array as="points">
              <mxPoint x="280" y="175" />
              <mxPoint x="260" y="175" />
              <mxPoint x="260" y="190" />
            </Array>
          </mxGeometry>
        </mxCell>
        <mxCell id="NcvqXxJW4e71j64YhQz_-34" value="" style="endArrow=classic;html=1;rounded=0;strokeColor=#028090;fontColor=#E4FDE1;fillColor=#F45B69;edgeStyle=orthogonalEdgeStyle;" edge="1" parent="1">
          <mxGeometry width="50" height="50" relative="1" as="geometry">
            <mxPoint x="480" y="160" as="sourcePoint" />
            <mxPoint x="470" y="190" as="targetPoint" />
            <Array as="points">
              <mxPoint x="480" y="175" />
              <mxPoint x="470" y="175" />
              <mxPoint x="470" y="190" />
            </Array>
          </mxGeometry>
        </mxCell>
        <mxCell id="NcvqXxJW4e71j64YhQz_-35" value="" style="endArrow=classic;html=1;rounded=0;strokeColor=#028090;fontColor=#E4FDE1;fillColor=#F45B69;edgeStyle=orthogonalEdgeStyle;exitX=0.5;exitY=1;exitDx=0;exitDy=0;" edge="1" parent="1" source="NcvqXxJW4e71j64YhQz_-17">
          <mxGeometry width="50" height="50" relative="1" as="geometry">
            <mxPoint x="260" y="240" as="sourcePoint" />
            <mxPoint x="230" y="270" as="targetPoint" />
            <Array as="points">
              <mxPoint x="240" y="250" />
              <mxPoint x="230" y="250" />
            </Array>
          </mxGeometry>
        </mxCell>
        <mxCell id="NcvqXxJW4e71j64YhQz_-36" value="" style="endArrow=classic;html=1;rounded=0;strokeColor=#028090;fontColor=#E4FDE1;fillColor=#F45B69;edgeStyle=orthogonalEdgeStyle;exitX=0.5;exitY=1;exitDx=0;exitDy=0;" edge="1" parent="1">
          <mxGeometry width="50" height="50" relative="1" as="geometry">
            <mxPoint x="360" y="240" as="sourcePoint" />
            <mxPoint x="350" y="270" as="targetPoint" />
            <Array as="points">
              <mxPoint x="360" y="250" />
              <mxPoint x="350" y="250" />
            </Array>
          </mxGeometry>
        </mxCell>
        <mxCell id="NcvqXxJW4e71j64YhQz_-37" value="" style="endArrow=classic;html=1;rounded=0;strokeColor=#028090;fontColor=#E4FDE1;fillColor=#F45B69;edgeStyle=orthogonalEdgeStyle;exitX=0.5;exitY=1;exitDx=0;exitDy=0;" edge="1" parent="1">
          <mxGeometry width="50" height="50" relative="1" as="geometry">
            <mxPoint x="530" y="240" as="sourcePoint" />
            <mxPoint x="520" y="270" as="targetPoint" />
            <Array as="points">
              <mxPoint x="530" y="250" />
              <mxPoint x="520" y="250" />
            </Array>
          </mxGeometry>
        </mxCell>
        <mxCell id="NcvqXxJW4e71j64YhQz_-38" value="" style="endArrow=classic;html=1;rounded=0;strokeColor=#028090;fontColor=#E4FDE1;fillColor=#F45B69;edgeStyle=orthogonalEdgeStyle;exitX=0.5;exitY=1;exitDx=0;exitDy=0;" edge="1" parent="1">
          <mxGeometry width="50" height="50" relative="1" as="geometry">
            <mxPoint x="280" y="240" as="sourcePoint" />
            <mxPoint x="290" y="270" as="targetPoint" />
            <Array as="points">
              <mxPoint x="280" y="250" />
              <mxPoint x="290" y="250" />
              <mxPoint x="290" y="270" />
            </Array>
          </mxGeometry>
        </mxCell>
        <mxCell id="NcvqXxJW4e71j64YhQz_-39" value="" style="endArrow=classic;html=1;rounded=0;strokeColor=#028090;fontColor=#E4FDE1;fillColor=#F45B69;edgeStyle=orthogonalEdgeStyle;exitX=0.5;exitY=1;exitDx=0;exitDy=0;" edge="1" parent="1">
          <mxGeometry width="50" height="50" relative="1" as="geometry">
            <mxPoint x="400" y="240" as="sourcePoint" />
            <mxPoint x="410" y="270" as="targetPoint" />
            <Array as="points">
              <mxPoint x="400" y="250" />
              <mxPoint x="410" y="250" />
              <mxPoint x="410" y="270" />
            </Array>
          </mxGeometry>
        </mxCell>
        <mxCell id="NcvqXxJW4e71j64YhQz_-40" value="" style="endArrow=classic;html=1;rounded=0;strokeColor=#028090;fontColor=#E4FDE1;fillColor=#F45B69;edgeStyle=orthogonalEdgeStyle;exitX=0.5;exitY=1;exitDx=0;exitDy=0;" edge="1" parent="1">
          <mxGeometry width="50" height="50" relative="1" as="geometry">
            <mxPoint x="570" y="240" as="sourcePoint" />
            <mxPoint x="580" y="270" as="targetPoint" />
            <Array as="points">
              <mxPoint x="570" y="250" />
              <mxPoint x="580" y="250" />
              <mxPoint x="580" y="270" />
            </Array>
          </mxGeometry>
        </mxCell>
        <mxCell id="NcvqXxJW4e71j64YhQz_-41" value="" style="endArrow=classic;html=1;rounded=0;strokeColor=#028090;fontColor=#E4FDE1;fillColor=#F45B69;edgeStyle=orthogonalEdgeStyle;exitX=0.5;exitY=1;exitDx=0;exitDy=0;" edge="1" parent="1">
          <mxGeometry width="50" height="50" relative="1" as="geometry">
            <mxPoint x="540" y="160" as="sourcePoint" />
            <mxPoint x="550" y="190" as="targetPoint" />
            <Array as="points">
              <mxPoint x="540" y="170" />
              <mxPoint x="550" y="170" />
              <mxPoint x="550" y="190" />
            </Array>
          </mxGeometry>
        </mxCell>
        <mxCell id="NcvqXxJW4e71j64YhQz_-42" value="" style="endArrow=classic;html=1;rounded=0;strokeColor=#028090;fontColor=#E4FDE1;fillColor=#F45B69;edgeStyle=orthogonalEdgeStyle;exitX=0.5;exitY=1;exitDx=0;exitDy=0;" edge="1" parent="1">
          <mxGeometry width="50" height="50" relative="1" as="geometry">
            <mxPoint x="500" y="80" as="sourcePoint" />
            <mxPoint x="520" y="110" as="targetPoint" />
            <Array as="points">
              <mxPoint x="500" y="90" />
              <mxPoint x="520" y="90" />
              <mxPoint x="520" y="110" />
            </Array>
          </mxGeometry>
        </mxCell>
        <mxCell id="NcvqXxJW4e71j64YhQz_-43" value="" style="endArrow=classic;html=1;rounded=0;strokeColor=#028090;fontColor=#E4FDE1;fillColor=#F45B69;edgeStyle=orthogonalEdgeStyle;exitX=0.5;exitY=1;exitDx=0;exitDy=0;" edge="1" parent="1">
          <mxGeometry width="50" height="50" relative="1" as="geometry">
            <mxPoint x="360" y="160" as="sourcePoint" />
            <mxPoint x="380" y="190" as="targetPoint" />
            <Array as="points">
              <mxPoint x="360" y="170" />
              <mxPoint x="380" y="170" />
              <mxPoint x="380" y="190" />
            </Array>
          </mxGeometry>
        </mxCell>
        <mxCell id="NcvqXxJW4e71j64YhQz_-46" value="" style="shape=partialRectangle;whiteSpace=wrap;html=1;bottom=1;right=1;left=1;top=0;fillColor=none;routingCenterX=-0.5;strokeColor=#028090;fontColor=#E4FDE1;" vertex="1" parent="1">
          <mxGeometry x="230" y="320" width="60" height="10" as="geometry" />
        </mxCell>
        <mxCell id="NcvqXxJW4e71j64YhQz_-47" value="" style="endArrow=classic;html=1;rounded=0;strokeColor=#028090;fontColor=#E4FDE1;fillColor=#F45B69;exitX=0.5;exitY=1;exitDx=0;exitDy=0;" edge="1" parent="1" source="NcvqXxJW4e71j64YhQz_-46">
          <mxGeometry width="50" height="50" relative="1" as="geometry">
            <mxPoint x="259.67" y="340" as="sourcePoint" />
            <mxPoint x="260" y="350" as="targetPoint" />
          </mxGeometry>
        </mxCell>
        <mxCell id="NcvqXxJW4e71j64YhQz_-48" value="7" style="whiteSpace=wrap;html=1;aspect=fixed;labelBackgroundColor=none;fillColor=#F45B69;strokeColor=#028090;fontColor=#E4FDE1;" vertex="1" parent="1">
          <mxGeometry x="260" y="360" width="40" height="40" as="geometry" />
        </mxCell>
        <mxCell id="NcvqXxJW4e71j64YhQz_-49" value="1" style="whiteSpace=wrap;html=1;aspect=fixed;labelBackgroundColor=none;fillColor=#F45B69;strokeColor=#028090;fontColor=#E4FDE1;" vertex="1" parent="1">
          <mxGeometry x="220" y="360" width="40" height="40" as="geometry" />
        </mxCell>
        <mxCell id="NcvqXxJW4e71j64YhQz_-52" value="" style="shape=partialRectangle;whiteSpace=wrap;html=1;bottom=1;right=1;left=1;top=0;fillColor=none;routingCenterX=-0.5;strokeColor=#028090;fontColor=#E4FDE1;" vertex="1" parent="1">
          <mxGeometry x="350" y="320" width="60" height="10" as="geometry" />
        </mxCell>
        <mxCell id="NcvqXxJW4e71j64YhQz_-53" value="" style="endArrow=classic;html=1;rounded=0;strokeColor=#028090;fontColor=#E4FDE1;fillColor=#F45B69;exitX=0.5;exitY=1;exitDx=0;exitDy=0;" edge="1" parent="1" source="NcvqXxJW4e71j64YhQz_-52">
          <mxGeometry width="50" height="50" relative="1" as="geometry">
            <mxPoint x="379.67" y="340" as="sourcePoint" />
            <mxPoint x="380" y="350" as="targetPoint" />
          </mxGeometry>
        </mxCell>
        <mxCell id="NcvqXxJW4e71j64YhQz_-54" value="3" style="whiteSpace=wrap;html=1;aspect=fixed;labelBackgroundColor=none;fillColor=#F45B69;strokeColor=#028090;fontColor=#E4FDE1;" vertex="1" parent="1">
          <mxGeometry x="340" y="360" width="40" height="40" as="geometry" />
        </mxCell>
        <mxCell id="NcvqXxJW4e71j64YhQz_-55" value="10" style="whiteSpace=wrap;html=1;aspect=fixed;labelBackgroundColor=none;fillColor=#F45B69;strokeColor=#028090;fontColor=#E4FDE1;" vertex="1" parent="1">
          <mxGeometry x="380" y="360" width="40" height="40" as="geometry" />
        </mxCell>
        <mxCell id="NcvqXxJW4e71j64YhQz_-56" value="" style="shape=partialRectangle;whiteSpace=wrap;html=1;bottom=1;right=1;left=1;top=0;fillColor=none;routingCenterX=-0.5;strokeColor=#028090;fontColor=#E4FDE1;" vertex="1" parent="1">
          <mxGeometry x="520" y="320" width="60" height="10" as="geometry" />
        </mxCell>
        <mxCell id="NcvqXxJW4e71j64YhQz_-57" value="" style="endArrow=classic;html=1;rounded=0;strokeColor=#028090;fontColor=#E4FDE1;fillColor=#F45B69;exitX=0.5;exitY=1;exitDx=0;exitDy=0;" edge="1" parent="1" source="NcvqXxJW4e71j64YhQz_-56">
          <mxGeometry width="50" height="50" relative="1" as="geometry">
            <mxPoint x="549.6700000000001" y="340" as="sourcePoint" />
            <mxPoint x="550" y="350" as="targetPoint" />
          </mxGeometry>
        </mxCell>
        <mxCell id="NcvqXxJW4e71j64YhQz_-58" value="9" style="whiteSpace=wrap;html=1;aspect=fixed;labelBackgroundColor=none;fillColor=#F45B69;strokeColor=#028090;fontColor=#E4FDE1;" vertex="1" parent="1">
          <mxGeometry x="550" y="360" width="40" height="40" as="geometry" />
        </mxCell>
        <mxCell id="NcvqXxJW4e71j64YhQz_-59" value="5" style="whiteSpace=wrap;html=1;aspect=fixed;labelBackgroundColor=none;fillColor=#F45B69;strokeColor=#028090;fontColor=#E4FDE1;" vertex="1" parent="1">
          <mxGeometry x="510" y="360" width="40" height="40" as="geometry" />
        </mxCell>
        <mxCell id="NcvqXxJW4e71j64YhQz_-60" value="" style="shape=partialRectangle;whiteSpace=wrap;html=1;bottom=1;right=1;left=1;top=0;fillColor=none;routingCenterX=-0.5;strokeColor=#028090;fontColor=#E4FDE1;" vertex="1" parent="1">
          <mxGeometry x="260" y="400" width="120" height="10" as="geometry" />
        </mxCell>
        <mxCell id="NcvqXxJW4e71j64YhQz_-61" value="" style="endArrow=classic;html=1;rounded=0;strokeColor=#028090;fontColor=#E4FDE1;fillColor=#F45B69;exitX=0.5;exitY=1;exitDx=0;exitDy=0;" edge="1" parent="1" source="NcvqXxJW4e71j64YhQz_-60">
          <mxGeometry width="50" height="50" relative="1" as="geometry">
            <mxPoint x="289.67" y="420" as="sourcePoint" />
            <mxPoint x="320" y="430" as="targetPoint" />
          </mxGeometry>
        </mxCell>
        <mxCell id="NcvqXxJW4e71j64YhQz_-62" value="3" style="whiteSpace=wrap;html=1;aspect=fixed;labelBackgroundColor=none;fillColor=#F45B69;strokeColor=#028090;fontColor=#E4FDE1;" vertex="1" parent="1">
          <mxGeometry x="280" y="440" width="40" height="40" as="geometry" />
        </mxCell>
        <mxCell id="NcvqXxJW4e71j64YhQz_-63" value="1" style="whiteSpace=wrap;html=1;aspect=fixed;labelBackgroundColor=none;fillColor=#F45B69;strokeColor=#028090;fontColor=#E4FDE1;" vertex="1" parent="1">
          <mxGeometry x="240" y="440" width="40" height="40" as="geometry" />
        </mxCell>
        <mxCell id="NcvqXxJW4e71j64YhQz_-64" value="7" style="whiteSpace=wrap;html=1;aspect=fixed;labelBackgroundColor=none;fillColor=#F45B69;strokeColor=#028090;fontColor=#E4FDE1;" vertex="1" parent="1">
          <mxGeometry x="320" y="440" width="40" height="40" as="geometry" />
        </mxCell>
        <mxCell id="NcvqXxJW4e71j64YhQz_-65" value="10" style="whiteSpace=wrap;html=1;aspect=fixed;labelBackgroundColor=none;fillColor=#F45B69;strokeColor=#028090;fontColor=#E4FDE1;" vertex="1" parent="1">
          <mxGeometry x="360" y="440" width="40" height="40" as="geometry" />
        </mxCell>
        <mxCell id="NcvqXxJW4e71j64YhQz_-66" value="" style="shape=partialRectangle;whiteSpace=wrap;html=1;bottom=1;right=1;left=1;top=0;fillColor=none;routingCenterX=-0.5;strokeColor=#028090;fontColor=#E4FDE1;" vertex="1" parent="1">
          <mxGeometry x="470" y="400" width="80" height="10" as="geometry" />
        </mxCell>
        <mxCell id="NcvqXxJW4e71j64YhQz_-67" value="" style="endArrow=classic;html=1;rounded=0;strokeColor=#028090;fontColor=#E4FDE1;fillColor=#F45B69;exitX=0.5;exitY=1;exitDx=0;exitDy=0;" edge="1" parent="1" source="NcvqXxJW4e71j64YhQz_-66">
          <mxGeometry width="50" height="50" relative="1" as="geometry">
            <mxPoint x="459.67" y="420" as="sourcePoint" />
            <mxPoint x="510" y="430" as="targetPoint" />
          </mxGeometry>
        </mxCell>
        <mxCell id="NcvqXxJW4e71j64YhQz_-69" value="" style="endArrow=none;html=1;rounded=0;strokeColor=#028090;fontColor=#E4FDE1;fillColor=#F45B69;exitX=0;exitY=0;exitDx=0;exitDy=0;entryX=0.5;entryY=1;entryDx=0;entryDy=0;" edge="1" parent="1" source="NcvqXxJW4e71j64YhQz_-66" target="NcvqXxJW4e71j64YhQz_-26">
          <mxGeometry width="50" height="50" relative="1" as="geometry">
            <mxPoint x="430" y="420" as="sourcePoint" />
            <mxPoint x="480" y="370" as="targetPoint" />
          </mxGeometry>
        </mxCell>
        <mxCell id="NcvqXxJW4e71j64YhQz_-70" value="5" style="whiteSpace=wrap;html=1;aspect=fixed;labelBackgroundColor=none;fillColor=#F45B69;strokeColor=#028090;fontColor=#E4FDE1;" vertex="1" parent="1">
          <mxGeometry x="490" y="440" width="40" height="40" as="geometry" />
        </mxCell>
        <mxCell id="NcvqXxJW4e71j64YhQz_-71" value="4" style="whiteSpace=wrap;html=1;aspect=fixed;labelBackgroundColor=none;fillColor=#F45B69;strokeColor=#028090;fontColor=#E4FDE1;" vertex="1" parent="1">
          <mxGeometry x="450" y="440" width="40" height="40" as="geometry" />
        </mxCell>
        <mxCell id="NcvqXxJW4e71j64YhQz_-72" value="9" style="whiteSpace=wrap;html=1;aspect=fixed;labelBackgroundColor=none;fillColor=#F45B69;strokeColor=#028090;fontColor=#E4FDE1;" vertex="1" parent="1">
          <mxGeometry x="530" y="440" width="40" height="40" as="geometry" />
        </mxCell>
        <mxCell id="NcvqXxJW4e71j64YhQz_-73" value="" style="shape=partialRectangle;whiteSpace=wrap;html=1;bottom=1;right=1;left=1;top=0;fillColor=none;routingCenterX=-0.5;strokeColor=#028090;fontColor=#E4FDE1;" vertex="1" parent="1">
          <mxGeometry x="320" y="480" width="190" height="10" as="geometry" />
        </mxCell>
        <mxCell id="NcvqXxJW4e71j64YhQz_-74" value="" style="endArrow=classic;html=1;rounded=0;strokeColor=#028090;fontColor=#E4FDE1;fillColor=#F45B69;exitX=0.5;exitY=1;exitDx=0;exitDy=0;" edge="1" parent="1" source="NcvqXxJW4e71j64YhQz_-73">
          <mxGeometry width="50" height="50" relative="1" as="geometry">
            <mxPoint x="349.67" y="500" as="sourcePoint" />
            <mxPoint x="415" y="510" as="targetPoint" />
          </mxGeometry>
        </mxCell>
        <mxCell id="NcvqXxJW4e71j64YhQz_-76" value="3" style="whiteSpace=wrap;html=1;aspect=fixed;labelBackgroundColor=none;fillColor=#F45B69;strokeColor=#028090;fontColor=#E4FDE1;" vertex="1" parent="1">
          <mxGeometry x="313" y="520" width="40" height="40" as="geometry" />
        </mxCell>
        <mxCell id="NcvqXxJW4e71j64YhQz_-77" value="1" style="whiteSpace=wrap;html=1;aspect=fixed;labelBackgroundColor=none;fillColor=#F45B69;strokeColor=#028090;fontColor=#E4FDE1;" vertex="1" parent="1">
          <mxGeometry x="273" y="520" width="40" height="40" as="geometry" />
        </mxCell>
        <mxCell id="NcvqXxJW4e71j64YhQz_-78" value="4" style="whiteSpace=wrap;html=1;aspect=fixed;labelBackgroundColor=none;fillColor=#F45B69;strokeColor=#028090;fontColor=#E4FDE1;" vertex="1" parent="1">
          <mxGeometry x="353" y="520" width="40" height="40" as="geometry" />
        </mxCell>
        <mxCell id="NcvqXxJW4e71j64YhQz_-79" value="5" style="whiteSpace=wrap;html=1;aspect=fixed;labelBackgroundColor=none;fillColor=#F45B69;strokeColor=#028090;fontColor=#E4FDE1;" vertex="1" parent="1">
          <mxGeometry x="393" y="520" width="40" height="40" as="geometry" />
        </mxCell>
        <mxCell id="NcvqXxJW4e71j64YhQz_-80" value="9" style="whiteSpace=wrap;html=1;aspect=fixed;labelBackgroundColor=none;fillColor=#F45B69;strokeColor=#028090;fontColor=#E4FDE1;" vertex="1" parent="1">
          <mxGeometry x="473" y="520" width="40" height="40" as="geometry" />
        </mxCell>
        <mxCell id="NcvqXxJW4e71j64YhQz_-81" value="7" style="whiteSpace=wrap;html=1;aspect=fixed;labelBackgroundColor=none;fillColor=#F45B69;strokeColor=#028090;fontColor=#E4FDE1;" vertex="1" parent="1">
          <mxGeometry x="433" y="520" width="40" height="40" as="geometry" />
        </mxCell>
        <mxCell id="NcvqXxJW4e71j64YhQz_-82" value="10" style="whiteSpace=wrap;html=1;aspect=fixed;labelBackgroundColor=none;fillColor=#F45B69;strokeColor=#028090;fontColor=#E4FDE1;" vertex="1" parent="1">
          <mxGeometry x="513" y="520" width="40" height="40" as="geometry" />
        </mxCell>
      </root>
    </mxGraphModel>
  </diagram>
</mxfile>
